<?xml version="1.0" standalone="no"?>
<!DOCTYPE svg PUBLIC "-//W3C//DTD SVG 1.1//EN" "http://www.w3.org/Graphics/SVG/1.1/DTD/svg11.dtd">
<svg xmlns="http://www.w3.org/2000/svg">
<defs >
<font id="BalooThambi2" horiz-adv-x="634" ><font-face
    font-family="Baloo Thambi 2 SemiBold"
    units-per-em="1000"
    panose-1="0 0 0 0 0 0 0 0 0 0"
    ascent="1078"
    descent="-486"
    alphabetic="0" />
<glyph unicode=" " horiz-adv-x="200" />
<glyph unicode="!" horiz-adv-x="275" d="M202 570Q202 543 201 500T198 404T193 301T184 210Q177 204 163 201T136 197Q114 197 100 205T82 232Q79 258 76 305T71 408T68 518T67 611Q99 630 138 630Q168 630 185 615T202 570ZM59 61Q59 94 80 115T136 137Q171
137 192 116T213 61Q213 28 192 7T136 -15Q101 -15 80 6T59 61Z" />
<glyph unicode="&quot;" horiz-adv-x="343" d="M131 397Q122 393 111 391T86 389Q65 389 52 397T38 426L28 613Q52 630 88 630Q117 630 131 619T145 580Q145 563 143 529T138 459T131 397ZM299 397Q290 393 279 391T253 389Q233 389 220 397T206 426L196 613Q207
621 222 625T257 630Q285 630 299 619T313 580Q313 563 311 529T306 459T299 397Z" />
<glyph unicode="#" horiz-adv-x="691" d="M584 145H48Q44 153 40 165T36 191Q36 217 48 229T82 241H617Q621 233 625 221T630 194Q630 169 618 157T584 145ZM612 376H77Q72 384 68 396T64 422Q64 448 76 460T110 472H646Q650 463 654 451T658 425Q658 400 646
388T612 376ZM326 488L220 -2Q211 -3 202 -3T184 -4Q157 -4 141 7T124 47Q124 65 129 86T137 123L242 613Q252 615 261 615T279 615Q306 615 322 605T339 565Q339 547 334 527T326 488ZM554 488L449 -2Q440 -3 431 -3T412 -4Q385 -4 369 7T353 47Q353 65 357 86T365
123L470 613Q480 615 490 615T508 615Q535 615 551 605T568 565Q568 547 563 527T554 488Z" />
<glyph unicode="$" horiz-adv-x="544" d="M213 48H326V-87Q319 -89 306 -91T276 -94Q245 -94 229 -82T213 -41V48ZM326 541H213V696Q221 698 234 700T264 703Q296 703 311 691T326 650V541ZM256 91Q314 91 341 114T368 170Q368 200 347 219T283 251L219 271Q169
287 131 309T72 364T51 447Q51 528 112 575T279 623Q335 623 379 612T448 581T473 532Q473 513 464 498T440 473Q417 490 377 503T290 516Q239 516 212 497T185 447Q185 423 203 408T262 380L318 362Q406 336 453 291T501 169Q501 87 439 36T259 -16Q198 -16 151
-3T76 34T49 86Q49 110 63 126T94 150Q119 128 160 110T256 91Z" />
<glyph unicode="%" horiz-adv-x="786" d="M343 466Q343 396 300 356T192 315Q127 315 84 355T41 466Q41 535 84 575T192 616Q257 616 300 576T343 466ZM138 466Q138 431 153 414T192 396Q216 396 231 413T246 466Q246 499 231 517T192 535Q168 535 153 517T138
466ZM191 91L548 617Q576 612 597 601T618 572Q618 558 612 545T595 517L239 -7Q209 -4 189 8T169 38Q169 51 175 63T191 91ZM746 143Q746 73 703 33T594 -8Q529 -8 486 32T443 143Q443 213 486 253T594 293Q659 293 702 253T746 143ZM540 143Q540 109 555 91T594
73Q618 73 633 91T649 143Q649 177 634 194T594 212Q570 212 555 195T540 143Z" />
<glyph unicode="&amp;" horiz-adv-x="656" d="M532 109L485 64Q447 24 393 4T279 -16Q205 -16 153 10T72 81T43 186Q43 236 63 273T116 336T189 374L247 294Q226 289 207 275T177 240T165 191Q165 145 196 115T285 85Q311 85 347 96T415 142L453 198Q467 231 473
275T480 366Q494 372 507 375T534 378Q568 378 580 359T593 308Q593 260 578 207T532 109ZM566 -14Q535 -14 506 17L213 317L187 352Q152 390 140 419T128 477Q128 519 148 551T207 603T302 622Q360 622 387 603T414 555Q414 541 408 528T390 505Q377 512 359 516T321
521Q290 521 271 507T251 464Q251 442 264 423T304 378L630 51Q627 23 610 5T566 -14Z" />
<glyph unicode="&apos;" horiz-adv-x="181" d="M137 399Q128 395 116 392T88 389Q67 389 53 398T38 428L28 611Q39 619 55 624T91 630Q120 630 136 618T152 578Q152 560 150 528T144 460T137 399Z" />
<glyph unicode="(" horiz-adv-x="281" d="M214 -126Q185 -126 165 -108T127 -62Q91 -3 70 79T48 270Q48 377 71 460T127 598Q143 626 164 644T214 663Q235 663 251 651T275 625Q224 554 197 468T169 270Q169 158 195 74T275 -88Q267 -103 251 -114T214 -126Z" />
<glyph unicode=")" horiz-adv-x="281" d="M67 -126Q96 -126 116 -108T154 -62Q190 -3 211 79T233 270Q233 377 210 460T154 598Q138 626 117 644T67 663Q46 663 30 651T6 625Q57 554 84 468T112 270Q112 158 86 74T6 -88Q14 -103 30 -114T67 -126Z" />
<glyph unicode="*" horiz-adv-x="326" d="M150 542L178 456L25 502Q20 517 20 531Q20 551 31 562T63 574Q69 574 76 572T90 568L150 542ZM211 503L121 370Q116 369 112 369T103 368Q76 368 63 379T50 407Q50 417 54 426T67 445L108 495L211 503ZM141 475L186 538L283
409Q279 391 266 380T234 368Q217 368 207 379T186 404L141 475ZM132 518L270 584Q283 579 293 567T303 537Q303 519 294 512T267 496L194 464L132 518ZM201 516L124 477L122 635Q129 639 140 644T165 649Q183 649 194 640T206 612Q206 606 205 587T202 547T201
516Z" />
<glyph unicode="+" horiz-adv-x="546" d="M458 243H52Q47 252 44 264T40 292Q40 319 53 331T89 344H494Q498 336 502 323T506 295Q506 268 493 256T458 243ZM332 474V61Q324 58 309 56T279 53Q249 53 233 64T217 109V523Q226 526 241 528T271 531Q301 531 316
520T332 474Z" />
<glyph unicode="," horiz-adv-x="196" d="M110 -83Q86 -118 48 -118Q14 -118 -9 -97Q4 -63 15 -24T36 55T51 126Q64 133 81 137T116 142Q140 142 157 131T174 91Q174 66 164 32T138 -33T110 -83Z" />
<glyph unicode="-" horiz-adv-x="371" d="M281 206H55Q50 215 46 228T42 256Q42 284 55 296T90 309H316Q320 301 324 288T329 259Q329 232 316 219T281 206Z" />
<glyph unicode="." horiz-adv-x="191" d="M19 62Q19 95 40 117T96 140Q131 140 151 118T172 62Q172 30 152 8T96 -15Q61 -15 40 7T19 62Z" />
<glyph unicode="/" horiz-adv-x="325" d="M296 573L116 -106Q106 -107 97 -107T77 -108Q47 -108 30 -94T13 -51Q13 -32 19 -11T29 26L209 705Q220 707 230 707T249 708Q278 708 295 695T313 653Q313 633 307 613T296 573Z" />
<glyph unicode="0" horiz-adv-x="595" d="M297 -15Q223 -15 166 20T76 127T44 304Q44 413 78 483T169 587T297 622Q368 622 425 587T517 482T551 304Q551 198 519 127T429 21T297 -15ZM297 88Q357 88 390 143T423 304Q423 377 407 424T362 495T297 519Q260 519
232 496T188 424T172 304Q172 198 205 143T297 88Z" />
<glyph unicode="1" horiz-adv-x="376" d="M291 176H164V486L50 441Q36 449 24 463T12 501Q12 546 68 566L193 615H221Q253 615 272 596T291 546V176ZM164 264H291V0Q282 -2 267 -5T233 -8Q198 -8 181 5T164 51V264Z" />
<glyph unicode="2" horiz-adv-x="515" d="M59 532Q59 559 81 579T144 610T234 622Q306 622 355 599T431 535T457 441Q457 387 427 336T331 227L184 100H452Q457 93 461 80T465 51Q465 25 453 13T420 0H70Q54 11 45 28T36 68Q36 93 46 111T71 142L230 287Q286 338
307 371T328 436Q328 473 301 495T222 518Q180 518 147 505T92 475Q79 484 69 498T59 532Z" />
<glyph unicode="3" horiz-adv-x="512" d="M225 622Q330 622 389 578T449 451Q449 416 435 389T401 345T358 318Q386 309 410 290T450 242T466 169Q466 111 436 70T352 8T228 -14Q166 -14 121 -2T52 32T28 78Q28 99 38 114T65 138Q88 121 123 105T215 89Q273 89
305 112T338 178Q338 218 310 240T222 263H133Q128 271 124 284T120 313Q120 331 124 344T133 364H219Q273 364 297 384T322 441Q322 478 293 498T210 519Q166 519 132 507T76 480Q63 489 53 503T43 536Q43 562 66 581T131 611T225 622Z" />
<glyph unicode="4" horiz-adv-x="576" d="M43 260L302 605Q316 609 334 612T367 615Q390 615 410 609T443 587T456 543V236H545Q550 229 554 215T559 186Q559 159 546 146T513 133H456V0Q448 -2 432 -5T400 -8Q368 -8 350 2T332 46V133H70Q53 142 41 160T29 204Q29
218 32 233T43 260ZM337 236L338 485H336L165 236H337Z" />
<glyph unicode="5" horiz-adv-x="530" d="M225 608L199 528L185 369Q204 376 228 382T285 388Q350 388 396 364T468 295T493 191Q493 135 467 88T388 13T254 -15Q195 -15 151 -2T81 33T56 82Q56 104 69 120T98 143Q123 123 159 106T248 88Q305 88 334 117T364
191Q364 235 336 261T254 287Q223 287 200 279T153 258Q114 260 92 280T69 337Q69 341 69 348T70 367L85 538Q87 570 105 589T155 608H225ZM168 504V608H452Q457 600 461 587T466 558Q466 531 454 518T420 504H168Z" />
<glyph unicode="6" horiz-adv-x="554" d="M470 547Q470 530 462 515T442 492Q417 504 389 511T332 519Q264 519 221 476T171 344Q191 361 228 378T313 395Q403 395 458 343T514 193Q514 134 487 87T410 13T288 -15Q215 -15 160 18T75 118T44 287Q44 375 65 438T125
542T213 602T319 622Q364 622 398 613T451 588T470 547ZM289 88Q334 88 360 116T386 194Q386 243 359 269T288 295Q252 295 222 280T174 241L175 231Q175 163 206 126T289 88Z" />
<glyph unicode="7" horiz-adv-x="470" d="M68 608H422Q436 599 446 584T456 548Q456 535 453 522T444 494L215 -6Q205 -7 196 -7T178 -7Q145 -7 124 7T103 50Q103 67 111 85T130 128L315 504H36Q31 512 27 525T22 554Q22 582 34 595T68 608Z" />
<glyph unicode="8" horiz-adv-x="564" d="M283 -16Q212 -16 158 5T74 67T44 165Q44 215 68 250T128 307T204 335L267 352Q323 363 353 386T383 447Q383 483 357 503T283 524Q238 524 212 503T185 447Q185 418 200 399T243 371T303 357L377 329Q413 319 446 300T501
247T523 163Q523 108 493 68T409 6T283 -16ZM283 83Q334 83 365 105T396 171Q396 217 354 245T238 279L192 304Q132 320 96 357T60 452Q60 505 88 543T166 602T283 623Q388 623 448 577T508 451Q508 391 471 356T381 307L300 281Q237 272 204 243T171 170Q171 129
201 106T283 83Z" />
<glyph unicode="9" horiz-adv-x="555" d="M75 61Q75 78 83 93T103 117Q126 105 156 97T219 88Q267 88 304 106T362 164T384 263Q373 253 354 242T308 223T250 216Q192 216 145 237T69 301T41 413Q41 473 68 520T146 594T266 622Q340 622 395 588T480 488T511 321Q511
205 476 131T379 21T234 -15Q164 -15 120 4T75 61ZM276 314Q310 314 339 330T381 369V371Q381 441 351 480T266 519Q222 519 195 492T168 416Q168 365 199 340T276 314Z" />
<glyph unicode=":" horiz-adv-x="225" d="M39 394Q39 426 59 448T115 471Q151 471 171 449T192 394Q192 361 172 339T115 316Q80 316 60 338T39 394ZM36 62Q36 95 56 117T112 140Q148 140 168 118T189 62Q189 30 169 8T112 -15Q77 -15 57 7T36 62Z" />
<glyph unicode=";" horiz-adv-x="235" d="M42 394Q42 426 62 448T118 471Q154 471 174 449T195 394Q195 361 175 339T118 316Q83 316 63 338T42 394ZM127 -83Q103 -118 65 -118Q31 -118 8 -97Q20 -63 31 -24T52 55T68 126Q81 133 98 137T132 142Q157 142 174 131T191
91Q191 66 181 32T155 -33T127 -83Z" />
<glyph unicode="&lt;" horiz-adv-x="482" d="M163 287L449 148Q450 142 450 136T451 124Q451 99 438 80T393 61Q379 61 364 67T328 84L60 226Q42 251 42 289Q42 318 50 334T74 359L390 519Q424 510 436 494T449 457Q449 432 436 417T396 388L163 287Z" />
<glyph unicode="=" horiz-adv-x="513" d="M423 347H53Q48 356 45 368T41 396Q41 423 54 435T90 448H460Q464 440 468 427T472 399Q472 372 459 360T423 347ZM423 142H53Q48 150 45 162T41 190Q41 217 54 230T90 243H460Q464 235 468 222T472 193Q472 166 459 154T423
142Z" />
<glyph unicode="&gt;" horiz-adv-x="476" d="M314 295L33 431Q32 437 32 443T31 455Q31 480 44 499T88 518Q103 518 119 512T153 496L417 355Q436 330 436 292Q436 263 428 247T403 221L94 62Q60 71 47 87T34 124Q34 150 48 165T88 193L314 295Z" />
<glyph unicode="?" horiz-adv-x="479" d="M225 227L126 205Q113 215 103 232T92 272Q92 295 104 307T143 326L217 345Q262 357 285 379T308 439Q308 472 282 497T198 522Q158 522 120 511T58 482Q44 493 35 508T25 543Q25 584 77 607T212 631Q284 631 335 607T414
539T442 440Q442 354 388 303T225 227ZM103 62Q103 94 124 116T180 138Q216 138 237 116T258 62Q258 29 237 8T180 -14Q145 -14 124 7T103 62Z" />
<glyph unicode="@" horiz-adv-x="1036" d="M432 199Q432 147 457 123T524 98Q558 98 582 114T627 160L654 55Q631 32 594 16T504 0Q415 0 360 52T305 198Q305 271 335 324T420 407T547 436Q594 436 630 425T693 398Q733 374 733 340Q733 334 733 328T731 315L703
56L585 55L611 321Q600 327 584 331T544 335Q495 335 464 300T432 199ZM625 33Q627 53 637 70T663 99T700 110Q708 105 721 100T750 94Q805 94 834 144T863 272Q863 358 823 422T710 523T540 560Q430 560 348 515T220 389T174 204Q174 104 215 30T329 -84T498 -124Q539
-124 568 -120T618 -111Q625 -119 629 -131T634 -155Q634 -177 621 -192T577 -215T489 -224Q421 -224 357 -207T237 -156T140 -70T75 50T52 204Q52 308 88 391T189 534T343 626T539 658Q640 658 722 631T862 552T952 430T984 271Q984 140 924 68T750 -5Q719 -5
685 4T625 33Z" />
<glyph unicode="A" horiz-adv-x="610" d="M309 500H304Q293 466 277 421T245 328T213 233L200 167Q194 148 187 125T173 79T160 36T149 0Q139 -4 127 -7T98 -10Q64 -10 45 3T26 42Q26 54 29 65T38 92Q48 125 64 175T101 283T143 400T183 509T215 594Q228 601 254
608T305 615Q341 615 370 605T407 570Q428 516 452 445T500 297T547 148T587 17Q578 6 560 -1T518 -9Q483 -9 469 3T446 44L407 172L392 239Q378 288 362 336T333 427T309 500ZM142 143L190 246H439L457 143H142Z" />
<glyph unicode="B" horiz-adv-x="609" d="M399 359V264H160V359H399ZM311 264L329 337Q408 337 459 317T537 260T563 173Q563 79 494 33T294 -14Q269 -14 240 -12T181 -6T125 8Q77 24 77 68V556Q77 575 87 585T115 601Q149 612 194 616T288 621Q408 621 474 579T541
451Q541 405 516 371T439 317T311 298L304 359Q358 359 384 380T411 442Q411 480 380 500T289 520Q265 520 243 519T203 514V97Q222 93 249 91T301 88Q362 88 396 110T430 178Q430 220 400 242T311 264Z" />
<glyph unicode="C" horiz-adv-x="579" d="M537 529Q537 510 526 495T501 471Q476 489 444 503T364 517Q308 517 267 492T202 420T178 303Q178 198 230 145T370 91Q416 91 449 104T509 133Q523 124 532 109T541 73Q541 57 532 43T502 17Q482 5 446 -5T355 -16Q268
-16 198 19T86 124T44 303Q44 407 85 478T196 586T348 623Q406 623 448 610T514 576T537 529Z" />
<glyph unicode="D" horiz-adv-x="659" d="M482 306Q482 200 431 146T287 92Q267 92 245 94T206 100V509Q223 512 242 513T284 515Q341 515 385 493T456 424T482 306ZM615 307Q615 413 573 482T455 586T278 621Q239 621 196 618T115 601Q97 595 87 585T77 557V67Q77
24 125 7Q163 -6 209 -10T287 -14Q386 -14 460 21T574 128T615 307Z" />
<glyph unicode="E" horiz-adv-x="540" d="M77 406H204V7Q196 5 180 2T146 -2Q114 -2 96 17T77 68V406ZM204 203H77V537Q77 569 95 588T146 607Q164 607 180 604T204 598V203ZM146 258V362H448Q453 354 457 341T461 312Q461 285 449 272T415 258H146ZM146 -2V103H481Q487
95 491 82T495 52Q495 25 483 12T449 -2H146ZM146 503V607H477Q482 599 486 586T491 557Q491 530 479 517T445 503H146Z" />
<glyph unicode="F" horiz-adv-x="524" d="M205 248L77 249V537Q77 569 95 588T146 607Q164 607 181 604T205 598V248ZM145 238V342H444Q449 334 453 321T458 292Q458 265 446 252T412 238H145ZM146 501V607H479Q484 599 488 586T492 556Q492 529 480 515T446 501H146ZM77
323H207V1Q199 -1 182 -4T147 -7Q109 -7 93 7T77 54V323Z" />
<glyph unicode="G" horiz-adv-x="652" d="M593 295V84Q593 59 582 46T549 20Q522 5 473 -5T375 -16Q281 -16 206 17T87 121T44 302Q44 408 88 479T206 587T370 623Q430 623 475 611T544 577T569 528Q569 509 559 494T533 471Q508 487 470 502T379 517Q321 517
276 492T204 419T178 303Q178 231 204 184T275 113T377 90Q406 90 430 95T467 107V245H339Q334 254 330 267T326 296Q326 322 338 335T371 348H539Q564 348 578 334T593 295Z" />
<glyph unicode="H" horiz-adv-x="663" d="M77 404H207V1Q198 -1 182 -4T147 -7Q109 -7 93 7T77 54V404ZM207 251H77V607Q85 609 102 612T137 615Q173 615 190 602T207 554V251ZM456 404H587V1Q578 -1 562 -4T526 -7Q489 -7 473 7T456 54V404ZM587 251H456V607Q465
609 482 612T517 615Q553 615 570 602T587 553V251ZM530 253H139V358H530V253Z" />
<glyph unicode="I" horiz-adv-x="284" d="M77 404H207V1Q199 -1 182 -4T147 -7Q109 -7 93 7T77 54V404ZM207 252H77V607Q86 609 103 612T137 615Q174 615 190 602T207 554V252Z" />
<glyph unicode="J" horiz-adv-x="399" d="M194 290H324V165Q324 105 302 66T238 7T142 -13Q87 -13 55 3T23 57Q23 74 29 86T41 106Q58 101 75 97T112 93Q153 93 173 114T194 179V290ZM324 238H194V607Q203 609 220 612T254 615Q291 615 307 602T324 554V238Z" />
<glyph unicode="K" horiz-adv-x="591" d="M154 318L290 345Q381 252 450 179T564 61Q563 28 543 10T493 -9Q464 -9 444 6T405 43L154 318ZM296 273H138L447 612Q495 612 516 593T538 548Q538 528 528 511T496 472L296 273ZM77 406H207V1Q198 -2 182 -4T147 -7Q109
-7 93 7T77 54V406ZM207 254H77V607Q85 609 102 612T137 615Q173 615 190 602T207 554V254Z" />
<glyph unicode="L" horiz-adv-x="507" d="M77 400H207V7L146 -2Q115 -2 96 17T77 68V400ZM146 -2V105H464Q470 98 474 84T479 54Q479 27 467 13T432 -2H146ZM207 251H77V607Q85 609 102 612T137 615Q173 615 190 602T207 554V251Z" />
<glyph unicode="M" horiz-adv-x="789" d="M460 153Q450 146 434 141T397 135Q371 135 353 142T328 165Q288 266 260 338T215 462H210Q207 395 205 339T201 230T196 122T189 2Q180 -1 165 -4T133 -7Q100 -7 83 5T65 44Q65 62 67 105T72 207T80 332T89 462T98 579Q106
589 127 599T183 610Q222 610 245 598T280 556Q299 515 318 464T357 360T394 265H398Q432 359 465 447T523 596Q535 602 554 606T594 610Q631 610 653 599T680 566Q684 547 689 506T699 411T708 298T717 183T725 81T729 9Q716 1 702 -3T666 -7Q640 -7 621 3T599
43Q594 128 591 206T585 349T579 458H575Q559 411 531 339T460 153Z" />
<glyph unicode="N" horiz-adv-x="670" d="M77 467L193 470Q197 431 199 389T202 306T203 227V1Q195 -1 179 -4T144 -7Q108 -7 93 6T77 52V467ZM593 142L477 139Q469 216 468 289T467 428V608Q475 610 491 612T525 615Q562 615 577 602T593 556V142ZM593 185V252V16Q582
6 562 0T513 -7Q483 -7 458 3T414 47L272 306Q259 330 246 355T221 404T200 451L77 423V585Q88 599 110 607T157 615Q188 615 213 604T256 560L400 301Q413 278 425 253T450 203T471 156L593 185Z" />
<glyph unicode="O" horiz-adv-x="696" d="M652 304Q652 200 612 129T504 21T348 -16Q261 -16 192 20T84 128T44 304Q44 408 84 479T193 586T348 623Q433 623 502 587T611 479T652 304ZM518 304Q518 407 472 462T348 517Q271 517 225 463T178 304Q178 200 224 146T348
91Q426 91 472 145T518 304Z" />
<glyph unicode="P" horiz-adv-x="574" d="M77 202V556Q77 575 87 585T115 601Q146 612 190 616T273 621Q405 621 471 565T538 412Q538 349 509 302T423 228T286 202H77ZM147 -7Q109 -7 93 7T77 54V260H207V1Q198 -1 182 -4T147 -7ZM206 306H277Q337 306 371 332T406
412Q406 464 374 490T279 516Q258 516 240 515T206 510V306Z" />
<glyph unicode="Q" horiz-adv-x="698" d="M332 3L464 31Q509 7 546 -9T616 -38T682 -62Q683 -68 683 -72T683 -81Q683 -120 663 -139T607 -158Q567 -158 517 -132T409 -59L332 3ZM652 305Q652 201 612 130T504 22T348 -15Q261 -15 192 21T84 129T44 305Q44 409
84 480T193 587T348 623Q433 623 502 587T611 480T652 305ZM518 305Q518 408 472 462T348 517Q271 517 225 463T178 305Q178 200 224 146T348 92Q426 92 472 146T518 305Z" />
<glyph unicode="R" horiz-adv-x="599" d="M205 314H287Q344 314 378 339T412 415Q412 465 379 490T278 516Q258 516 240 514T205 509V314ZM296 212H77V556Q77 575 87 585T115 601Q146 612 190 616T280 621Q411 621 477 566T544 416Q544 356 513 310T427 238T296
212ZM278 245L389 276Q414 244 440 211T491 146T534 89T565 47Q558 21 538 6T493 -9Q463 -9 446 5T413 43L278 245ZM77 258H207V1Q198 -1 182 -4T147 -7Q109 -7 93 7T77 54V258Z" />
<glyph unicode="S" horiz-adv-x="538" d="M254 91Q312 91 338 114T365 170Q365 200 344 219T281 251L217 271Q167 287 129 309T70 364T49 447Q49 528 110 575T277 623Q333 623 377 612T446 581T471 532Q471 513 462 498T438 473Q414 490 375 503T288 516Q237 516
210 497T183 447Q183 423 201 408T260 380L316 362Q404 336 451 291T499 169Q499 87 437 36T257 -16Q196 -16 149 -3T74 34T47 86Q47 110 60 126T92 150Q117 128 158 110T254 91Z" />
<glyph unicode="T" horiz-adv-x="540" d="M221 501L219 607H504Q509 599 513 586T518 556Q518 529 506 515T471 501H221ZM318 607L321 501H35Q30 509 26 523T21 552Q21 580 33 593T68 607H318ZM203 528H333V1Q325 -1 308 -4T273 -7Q236 -7 220 7T203 54V528Z" />
<glyph unicode="U" horiz-adv-x="657" d="M328 -16Q248 -16 192 13T105 94T74 216V287H204V221Q204 158 239 125T328 91Q382 91 417 124T452 221V287H582V216Q582 147 552 95T465 13T328 -16ZM204 254H74V607Q83 609 100 612T135 615Q171 615 187 602T204 554V254ZM582
253H452V607Q461 609 478 612T512 615Q549 615 565 602T582 554V253Z" />
<glyph unicode="V" horiz-adv-x="610" d="M389 14Q379 6 357 -1T309 -8Q279 -8 256 1T224 27Q209 57 189 106T146 216T100 341T58 468T24 582Q34 593 53 602T96 611Q124 611 140 599T166 556Q201 443 235 338T309 121H314Q337 190 361 269T410 432T454 597Q467
604 482 607T515 611Q543 611 561 599T580 557Q580 539 570 498T542 402T503 288T460 173T420 76T389 14Z" />
<glyph unicode="W" horiz-adv-x="834" d="M352 458Q361 462 379 467T416 472Q447 472 468 462T495 434Q514 371 530 318T561 216T591 112H596Q611 198 624 276T649 433T673 598Q699 612 730 612Q758 612 777 600T797 559Q797 539 792 500T779 409T759 302T736
192T710 93T686 18Q674 9 650 2T598 -6Q563 -6 539 4T508 32Q498 63 483 107T452 205T421 314Q407 260 392 204T361 99T334 17Q323 9 301 2T251 -6Q217 -6 191 4T157 32Q147 55 133 103T104 212T76 341T50 471T32 585Q42 595 61 603T102 612Q130 612 147 600T170
557Q185 473 196 410T216 295T234 200T252 112H257Q268 155 278 192T300 267T323 352T352 458Z" />
<glyph unicode="X" horiz-adv-x="596" d="M257 275L230 282L35 552Q43 575 63 594T115 613Q137 613 154 601T189 562L328 356L363 332L563 53Q557 25 538 9T486 -8Q463 -8 447 3T414 42L257 275ZM357 280L320 254L140 -6Q135 -7 129 -7T116 -8Q77 -8 57 9T37 51Q37
73 46 89T73 127L231 332L285 376L445 606Q452 608 461 609T482 611Q515 611 533 595T552 555Q552 536 542 519T515 481Q477 431 438 381T357 280Z" />
<glyph unicode="Y" horiz-adv-x="562" d="M347 202H231Q205 242 174 289T113 387T57 484T13 571Q21 586 38 598T81 611Q111 611 128 598T163 553Q169 542 181 519T209 467T240 410T268 359T286 327H291Q318 376 339 419T380 506T424 598Q436 605 452 608T481 611Q509
611 526 598T543 557Q543 546 532 520T498 450T437 346T347 202ZM224 252H352V1Q344 -1 328 -4T293 -7Q256 -7 240 7T224 53V252Z" />
<glyph unicode="Z" horiz-adv-x="559" d="M75 142L440 609H481Q513 582 513 540Q513 521 505 503T482 466L119 0H71Q58 11 50 28T42 67Q42 86 51 105T75 142ZM92 0L141 107H505Q511 99 515 86T520 55Q520 28 508 14T473 0H92ZM455 609L416 501H64Q59 510 55 523T50
553Q50 581 63 595T98 609H455Z" />
<glyph unicode="[" horiz-adv-x="286" d="M57 -46V574H174V-46H57ZM57 -25H267Q272 -33 275 -45T279 -71Q279 -97 267 -109T233 -121H116Q86 -121 72 -104T57 -62V-25ZM116 655H267Q272 647 275 635T279 609Q279 583 267 571T233 559H57V596Q57 621 71 638T116 655Z" />
<glyph unicode="\" horiz-adv-x="351" d="M142 627L324 -32Q313 -44 295 -52T259 -60Q238 -60 224 -52T203 -20L21 640Q32 651 50 659T86 668Q107 668 121 659T142 627Z" />
<glyph unicode="]" horiz-adv-x="294" d="M229 583V-40H112V583H229ZM229 559H19Q15 567 11 579T7 605Q7 631 19 643T53 655H170Q200 655 214 638T229 596V559ZM170 -121H19Q15 -113 11 -101T7 -75Q7 -48 19 -37T53 -25H229V-62Q229 -86 215 -103T170 -121Z" />
<glyph unicode="^" horiz-adv-x="476" d="M173 644Q181 651 198 656T237 661Q288 661 303 634Q316 614 334 578T371 500T406 416T432 343Q423 333 408 325T374 317Q350 317 336 327T312 364L236 550H231Q224 533 214 508T193 451T170 389T151 329Q140 323 126
320T97 316Q76 316 60 326T44 361Q44 373 54 400T80 463T114 535T148 600T173 644Z" />
<glyph unicode="_" horiz-adv-x="488" d="M439 -157H12Q7 -148 4 -136T0 -109Q0 -81 13 -69T49 -56H476Q480 -64 484 -77T488 -106Q488 -133 475 -145T439 -157Z" />
<glyph unicode="`" horiz-adv-x="302" d="M134 545L38 640Q37 644 37 649T36 658Q36 685 52 700T92 716Q108 716 121 710T147 689L237 577Q234 551 219 538T184 524Q168 524 157 529T134 545Z" />
<glyph unicode="a" horiz-adv-x="522" d="M250 -15Q151 -15 93 24T35 139Q35 206 77 242T201 286L338 300V317Q338 356 310 373T233 391Q194 391 157 381T91 358Q80 366 73 380T65 409Q65 447 105 464Q133 476 170 482T246 489Q344 489 402 447T461 316V85Q461
61 450 47T419 22Q391 6 348 -4T250 -15ZM250 81Q279 81 303 87T338 100V211L241 202Q202 199 181 185T159 142Q159 114 181 98T250 81Z" />
<glyph unicode="b" horiz-adv-x="570" d="M302 489Q366 489 418 461T500 378T530 238Q530 155 499 99T411 14T278 -15Q220 -15 177 -1T106 32Q85 46 75 62T65 102V424H191V109Q204 101 226 94T277 87Q333 87 367 124T401 238Q401 316 368 352T280 388Q245 388
218 375T173 345L166 447Q188 462 222 475T302 489ZM192 395H65V650Q73 653 89 655T123 658Q159 658 175 646T192 599V395Z" />
<glyph unicode="c" horiz-adv-x="484" d="M308 387Q250 387 209 348T168 236Q168 163 207 125T308 87Q343 87 369 96T414 118Q429 107 437 95T445 64Q445 30 405 8T297 -14Q221 -14 163 14T72 97T40 236Q40 320 74 376T167 460T293 489Q360 489 400 465T440 407Q440
391 432 379T412 357Q393 368 368 377T308 387Z" />
<glyph unicode="d" horiz-adv-x="567" d="M376 106V418L502 419V92Q502 70 493 55T463 28Q438 12 397 -1T301 -15Q221 -15 163 12T72 95T40 235Q40 323 72 378T159 461T282 489Q319 489 349 480T398 458V351Q382 365 357 376T299 388Q261 388 232 372T185 323T168
234Q168 158 203 123T300 87Q326 87 344 93T376 106ZM502 392H375V650Q384 653 399 655T433 658Q469 658 485 646T502 599V392Z" />
<glyph unicode="e" horiz-adv-x="535" d="M120 173L115 262L380 301Q377 338 351 365T277 393Q226 393 193 358T159 258L162 204Q170 142 210 113T312 83Q354 83 390 95T448 122Q461 114 470 100T479 70Q479 44 456 25T394 -5T304 -15Q226 -15 167 14T74 100T40
242Q40 304 59 350T111 427T186 473T277 489Q343 489 393 462T471 388T499 280Q499 252 485 238T444 220L120 173Z" />
<glyph unicode="f" horiz-adv-x="415" d="M167 343V442H367Q372 435 376 422T380 394Q380 368 368 356T336 343H167ZM187 489V359H65V494Q65 558 91 597T162 656T267 675Q333 675 366 658T400 605Q400 589 394 577T378 556Q360 563 336 568T286 573Q235 573 211
554T187 489ZM65 393H192V1Q184 -1 169 -4T135 -7Q99 -7 82 6T65 52V393Z" />
<glyph unicode="g" horiz-adv-x="552" d="M260 17Q201 17 151 40T71 114T40 251Q40 329 71 382T157 462T285 489Q337 489 380 476T450 445Q468 433 478 418T489 380V68H366V368Q352 376 334 382T289 388Q234 388 201 355T167 251Q167 175 199 145T281 115Q317
115 340 127T380 156L385 52Q365 38 335 28T260 17ZM367 -1V96H489V-6Q489 -74 458 -117T373 -180T252 -200Q201 -200 162 -191T104 -169Q71 -148 71 -113Q71 -94 79 -80T98 -58Q123 -74 160 -86T240 -99Q300 -99 333 -76T367 -1Z" />
<glyph unicode="h" horiz-adv-x="569" d="M505 202H378V293Q378 343 352 365T284 388Q249 388 221 375T174 345L166 447Q190 462 225 475T306 489Q397 489 451 442T505 299V202ZM65 264H192V1Q184 -1 169 -4T135 -7Q99 -7 82 6T65 52V264ZM378 264L505 263V1Q497
-1 482 -4T448 -7Q412 -7 395 6T378 52V264ZM192 199H65V650Q73 653 89 655T123 658Q159 658 175 646T192 599V199Z" />
<glyph unicode="i" horiz-adv-x="262" d="M58 615Q58 645 78 665T131 686Q163 686 183 666T204 615Q204 585 184 565T131 544Q99 544 79 564T58 615ZM68 264H194V1Q186 -1 171 -4T137 -7Q101 -7 85 6T68 52V264ZM194 199H68V470Q76 472 91 475T125 478Q161 478
177 466T194 419V199Z" />
<glyph unicode="j" horiz-adv-x="266" d="M-1 -123Q23 -112 39 -98T63 -64T72 -11V266H198V-26Q198 -88 179 -125T130 -178T71 -195Q36 -195 19 -175T-1 -123ZM59 615Q59 645 79 665T132 686Q165 686 185 666T205 615Q205 585 185 565T132 544Q100 544 80 564T59
615ZM198 194L72 199V470Q80 472 95 475T129 478Q165 478 181 466T198 419V194Z" />
<glyph unicode="k" horiz-adv-x="522" d="M248 198L160 257L386 482Q425 482 448 465T471 422Q471 399 456 382T410 339L248 198ZM163 238L261 285L493 66Q490 31 473 12T423 -8Q400 -8 381 4T340 42L163 238ZM65 266L192 260V1Q184 -1 169 -4T135 -7Q99 -7 82
6T65 52V266ZM192 195L65 201V650Q73 653 89 655T123 658Q159 658 175 646T192 599V195Z" />
<glyph unicode="l" horiz-adv-x="266" d="M69 264L196 258V1Q188 -1 173 -4T139 -7Q103 -7 86 6T69 52V264ZM196 194L69 199V650Q78 653 93 655T127 658Q163 658 179 646T196 599V194Z" />
<glyph unicode="m" horiz-adv-x="832" d="M479 327V213H352V312Q352 352 330 370T271 388Q247 388 226 380T190 364V213H63V373Q63 396 73 411T104 441Q134 461 180 475T275 489Q324 489 365 474T434 429Q441 422 447 416T458 402Q467 388 473 369T479 327ZM769
317V213H642V312Q642 352 620 370T562 388Q535 388 511 377T468 348L405 426Q435 451 477 470T579 489Q631 489 674 471T743 416T769 317ZM63 261H190V1Q182 -1 167 -4T133 -7Q97 -7 80 6T63 52V261ZM352 261H479V1Q471 -1 456 -4T422 -7Q386 -7 369 6T352 52V261ZM642
261H769V1Q760 -1 745 -4T711 -7Q675 -7 659 6T642 52V261Z" />
<glyph unicode="n" horiz-adv-x="567" d="M504 309V212H377V305Q377 348 352 368T286 388Q257 388 233 381T190 362V212H63V373Q63 397 73 412T104 441Q134 460 181 474T287 489Q390 489 447 443T504 309ZM63 261H190V1Q182 -1 167 -4T133 -7Q97 -7 80 6T63 52V261ZM377
261H504V1Q495 -1 480 -4T446 -7Q410 -7 394 6T377 52V261Z" />
<glyph unicode="o" horiz-adv-x="570" d="M531 237Q531 160 501 104T415 16T285 -15Q211 -15 156 15T70 103T40 237Q40 315 70 371T156 458T286 489Q359 489 414 458T500 370T531 237ZM285 388Q232 388 201 348T169 237Q169 165 200 126T285 86Q340 86 370 126T401
237Q401 308 370 348T285 388Z" />
<glyph unicode="p" horiz-adv-x="566" d="M288 -14Q249 -14 217 -4T164 19V129Q182 113 208 100T269 87Q329 87 363 124T397 239Q397 293 381 325T337 373T272 388Q245 388 225 381T189 366V52H63V379Q63 403 72 418T103 446Q132 464 175 476T272 489Q346 489
403 463T494 381T527 239Q527 156 496 100T411 15T288 -14ZM133 -187Q97 -187 80 -174T63 -128V87L190 86V-179Q182 -181 167 -184T133 -187Z" />
<glyph unicode="q" horiz-adv-x="567" d="M503 70H377V368Q365 376 346 382T300 388Q262 388 233 372T186 322T168 235Q168 158 203 123T297 87Q328 87 351 97T390 120V13Q372 1 344 -7T279 -15Q209 -15 155 12T71 95T40 235Q40 320 73 376T164 460T297 489Q350
489 394 476T465 446Q483 435 493 420T503 381V70ZM376 87L503 88V-182Q495 -184 480 -187T446 -190Q410 -190 393 -177T376 -131V87Z" />
<glyph unicode="r" horiz-adv-x="397" d="M190 359V224H63V369Q63 396 75 413T110 445Q141 465 187 476T285 488Q380 488 380 429Q380 415 376 403T366 382Q356 384 341 385T310 387Q275 387 244 379T190 359ZM63 264L190 258V1Q182 -1 167 -4T133 -7Q97 -7 80
6T63 52V264Z" />
<glyph unicode="s" horiz-adv-x="470" d="M433 134Q433 64 381 25T228 -15Q147 -15 96 9T44 73Q44 92 52 106T75 129Q103 112 139 98T224 83Q307 83 307 134Q307 155 293 168T247 188L191 201Q117 217 82 251T46 343Q46 408 98 448T244 489Q292 489 329 480T389
452T411 409Q411 391 404 378T384 355Q373 363 352 371T304 385T253 391Q215 391 193 379T170 343Q170 327 182 316T226 297L275 285Q358 266 395 230T433 134Z" />
<glyph unicode="t" horiz-adv-x="385" d="M65 264H190V147Q190 115 210 101T264 87Q280 87 298 91T330 102Q338 94 343 82T349 55Q349 25 322 6T235 -14Q156 -14 111 21T65 139V264ZM141 365V464H337Q342 457 346 444T350 415Q350 389 339 377T306 365H141ZM190
237H65V598Q73 600 88 603T122 606Q157 606 173 593T190 547V237Z" />
<glyph unicode="u" horiz-adv-x="567" d="M63 181V259H190V183Q190 132 217 109T292 86Q323 86 344 92T377 105V259H504V93Q504 70 496 55T466 27Q438 9 393 -3T291 -15Q222 -15 171 6T91 70T63 181ZM504 212H377V472Q385 475 400 478T434 481Q471 481 487 468T504
421V212ZM190 212H63V472Q71 475 87 478T121 481Q157 481 173 468T190 421V212Z" />
<glyph unicode="v" horiz-adv-x="521" d="M430 484Q456 484 473 472T491 432Q491 416 481 379T453 292T416 189T375 89T337 10Q328 3 308 -2T263 -8Q235 -8 214 0T184 24Q173 44 157 82T122 169T85 270T50 370T25 455Q35 467 53 475T92 484Q119 484 135 472T161
429L211 264Q219 238 228 208T247 151T262 105H267Q296 192 323 286T372 470Q397 484 430 484Z" />
<glyph unicode="w" horiz-adv-x="761" d="M384 307Q370 253 353 197T320 92T293 11Q282 3 265 -2T222 -8Q193 -8 171 0T141 26Q131 46 120 83T96 168T71 269T48 369T31 457Q41 467 58 475T98 484Q125 484 141 471T162 427Q171 367 180 316T198 224T212 154T223
110H227Q233 133 247 183T280 297T318 427Q332 436 347 440T384 444Q411 444 430 435T454 408Q474 345 491 285T522 179T540 110H545Q562 193 580 285T612 469Q637 484 669 484Q695 484 712 473T729 433Q729 420 723 389T708 316T686 230T662 142T639 65T620 11Q611
3 590 -2T545 -8Q482 -8 470 23Q460 53 445 99T413 199T384 307Z" />
<glyph unicode="x" horiz-adv-x="503" d="M212 286L236 290Q273 340 308 385T378 480Q383 481 386 481T393 481Q427 481 447 467T467 427Q467 408 459 393T428 353Q399 318 369 283T309 214L271 192Q235 143 199 93T128 -7Q125 -7 119 -7T110 -7Q73 -7 54 8T34
48Q34 64 42 78T70 116Q105 159 141 201T212 286ZM287 278L316 262Q356 209 396 158T476 54Q472 25 454 8T409 -9Q382 -8 365 7T330 46Q303 84 275 124T219 202L195 220Q153 271 114 319T33 417Q39 446 57 463T100 481Q125 481 139 469T170 435Q198 398 227 358T287
278Z" />
<glyph unicode="y" horiz-adv-x="521" d="M148 114Q132 147 112 196T69 310T25 455Q35 467 53 475T92 484Q118 484 135 472T162 429Q186 353 212 278T268 124H272Q290 168 309 226T346 348T374 470Q386 476 399 480T428 484Q455 484 473 472T492 433Q492 409 484
369T461 281T427 181T386 82T342 -6Q291 -97 248 -143T164 -189Q132 -189 112 -171T88 -123Q109 -105 133 -79T180 -23T219 34Q202 39 185 55T148 114Z" />
<glyph unicode="z" horiz-adv-x="475" d="M115 0H65Q53 10 46 24T39 56Q39 72 46 87T65 116L360 474H406Q418 463 425 449T432 417Q432 401 425 387T406 357L115 0ZM382 474V374H57Q53 382 49 395T44 424Q44 450 56 462T88 474H382ZM95 0V99H428Q433 92 437 79T442
50Q442 24 430 12T397 0H95Z" />
<glyph unicode="{" horiz-adv-x="310" d="M162 270Q192 255 208 225T224 146V26Q224 -9 239 -23T279 -41Q281 -48 281 -54T282 -66Q282 -96 265 -110T219 -125Q170 -125 139 -93T108 6V119Q108 167 91 192T37 226Q34 234 32 246T30 270Q30 282 32 294T37 315Q73
322 90 348T108 422V530Q108 595 140 627T221 660Q250 660 266 647T282 601Q282 595 282 589T279 576Q254 573 239 559T224 509V394Q224 347 208 316T162 270Z" />
<glyph unicode="|" horiz-adv-x="267" d="M190 626V-174Q182 -177 168 -179T138 -181Q109 -181 93 -170T77 -126V675Q86 678 99 680T128 682Q159 682 174 671T190 626Z" />
<glyph unicode="}" horiz-adv-x="310" d="M148 270Q118 255 102 225T86 146V26Q86 -9 71 -23T31 -41Q29 -48 29 -54T28 -66Q28 -96 45 -110T91 -125Q140 -125 171 -93T202 6V119Q202 167 219 192T273 226Q276 234 278 246T280 270Q280 282 278 294T273 315Q237
322 220 348T202 422V530Q202 595 170 627T89 660Q60 660 44 647T28 601Q28 595 28 589T31 576Q56 573 71 559T86 509V394Q86 347 102 316T148 270Z" />
<glyph unicode="~" horiz-adv-x="477" d="M319 298Q344 298 356 312T378 341Q410 341 433 322T456 271Q456 229 425 207T348 184Q313 184 281 193T218 212T158 221Q132 221 120 207T99 179Q68 179 45 198T21 249Q21 278 36 297T77 325T129 335Q166 335 198 326T261
308T319 298Z" />
<glyph unicode="&#xa0;" horiz-adv-x="200" />
<glyph unicode="&#xa1;" horiz-adv-x="275" d="M73 -107Q73 -80 74 -37T77 59T82 162T91 253Q98 259 112 262T139 266Q161 266 175 258T193 231Q196 205 199 158T204 55T207 -55T208 -148Q176 -167 137 -167Q107 -167 90 -152T73 -107ZM216 402Q216 369 195 348T139
326Q104 326 83 347T62 402Q62 435 83 456T139 478Q174 478 195 457T216 402Z" />
<glyph unicode="&#xa2;" horiz-adv-x="484" d="M209 49H322V-97Q314 -99 301 -101T271 -103Q240 -103 225 -91T209 -50V49ZM322 408H209V573Q216 575 230 577T259 579Q292 579 307 567T322 526V408ZM307 387Q249 387 208 348T167 236Q167 163 206 125T307 87Q342
87 368 96T413 118Q428 107 436 95T444 64Q444 30 404 8T295 -14Q219 -14 161 14T71 97T39 236Q39 320 73 376T166 460T292 489Q359 489 399 465T439 407Q439 391 431 379T411 357Q392 368 367 377T307 387Z" />
<glyph unicode="&#xa3;" horiz-adv-x="504" d="M372 251H90Q72 251 60 262T47 302Q47 317 51 329T60 350H403Q407 342 411 330T416 302Q416 274 404 263T372 251ZM130 224Q130 247 127 281T119 352T115 414Q115 488 144 534T223 601T332 623Q399 623 432 601T465
546Q465 533 458 518T439 494Q420 506 399 513T349 520Q296 520 268 493T240 406Q240 380 243 345T250 277T253 222Q253 183 243 153T211 100H467Q472 92 475 79T479 51Q479 24 467 12T435 0H100Q77 0 61 16T44 63Q44 72 45 78Q88 98 109 129T130 224Z" />
<glyph unicode="&#xa4;" horiz-adv-x="546" d="M271 101Q216 101 171 123T98 189T71 294Q71 356 98 399T170 464T270 487Q326 487 371 465T444 399T471 294Q471 232 444 189T372 124T271 101ZM130 54Q107 59 89 71T71 103Q71 116 78 130T98 158L146 220L211 159L130
54ZM431 60Q416 60 403 73T378 100L329 160L401 206L486 104Q477 82 463 71T431 60ZM271 189Q311 189 336 216T362 294Q362 345 337 372T271 399Q230 399 205 372T179 294Q179 244 204 217T271 189ZM142 378L57 480Q67 503 82 513T113 524Q128 524 141 512T166
484L215 424L142 378ZM400 364L335 425L416 530Q440 525 457 514T475 481Q475 468 468 455T448 426L400 364Z" />
<glyph unicode="&#xa5;" horiz-adv-x="573" d="M390 301L201 294Q170 340 138 391T79 491T35 576Q45 590 61 601T101 613Q129 613 146 601T180 556L290 361H296Q321 406 338 441T373 514T415 600Q428 607 443 610T473 613Q499 613 515 599T531 561Q531 552 523
531T496 478T451 401T390 301ZM226 182H354V1Q346 -1 330 -4T296 -7Q258 -7 242 7T226 53V182ZM260 266L278 351H514Q518 342 521 332T525 308Q525 287 515 277T489 266H260ZM311 351L326 266H67Q62 273 59 284T55 308Q55 332 65 341T91 351H311ZM488 124H67Q62
131 59 142T55 166Q55 190 65 199T90 208H513Q517 201 520 190T524 166Q524 145 514 135T488 124Z" />
<glyph unicode="&#xa6;" horiz-adv-x="293" d="M190 626V312Q182 309 168 307T138 305Q109 305 93 316T77 360V676Q86 678 99 680T128 683Q159 683 174 672T190 626ZM190 141V-174Q182 -177 168 -179T138 -181Q109 -181 93 -170T77 -126V190Q86 192 99 194T128
197Q159 197 174 186T190 141Z" />
<glyph unicode="&#xa7;" horiz-adv-x="526" d="M471 88Q471 20 415 -18T250 -57Q194 -57 150 -47T81 -16T56 32Q56 51 64 64T86 87Q117 68 156 55T246 41Q297 41 321 53T346 89Q346 109 331 119T279 136L205 150Q133 163 95 196T56 291Q56 350 99 381T211 419L224
359Q202 351 189 334T176 294Q176 275 190 261T236 240L322 222Q393 208 432 178T471 88ZM471 280Q471 250 458 225T424 182T379 157L303 206Q326 221 338 236T351 275Q351 296 335 309T283 331L203 346Q160 355 128 371T78 414T60 483Q60 550 114 586T260 623Q310
623 350 614T414 587T438 544Q438 526 431 513T413 491Q398 499 375 507T323 520T268 525Q229 525 207 514T184 479Q184 460 198 451T241 437L313 424Q390 409 430 375T471 280Z" />
<glyph unicode="&#xa8;" horiz-adv-x="374" d="M159 618Q159 591 140 572T90 553Q61 553 43 572T24 618Q24 646 42 665T90 685Q121 685 140 666T159 618ZM354 618Q354 591 335 572T286 553Q257 553 238 572T218 618Q218 646 237 665T286 685Q316 685 335 666T354 618Z" />
<glyph unicode="&#xa9;" horiz-adv-x="713" d="M44 303Q44 390 83 460T192 572T355 614Q448 614 518 573T629 461T669 303Q669 218 629 149T519 39T355 -2Q262 -2 192 38T83 148T44 303ZM355 541Q285 541 235 511T157 427T130 303Q130 235 157 183T234 102T355
72Q426 72 476 101T553 183T580 303Q580 373 554 426T477 510T355 541ZM386 396Q352 396 326 375T300 308Q300 264 324 241T387 218Q410 218 424 224T451 237Q472 221 472 195Q472 176 446 159T373 142Q327 142 289 161T229 217T207 308Q207 365 232 401T295 455T371
473Q414 473 441 457T468 416Q468 405 462 395T447 378Q436 384 421 390T386 396Z" />
<glyph unicode="&#xaa;" horiz-adv-x="354" d="M169 296Q104 296 66 321T27 396Q27 441 55 464T140 493L223 502V507Q223 533 206 543T155 553Q131 553 106 547T63 531Q55 536 50 546T44 567Q44 582 50 590T71 605Q88 613 114 617T165 622Q229 622 268 596T308
507V357Q308 344 300 335T280 319Q238 296 169 296ZM169 363Q185 363 200 366T224 374V440L167 434Q140 432 126 424T112 400Q112 383 126 373T169 363Z" />
<glyph unicode="&#xab;" horiz-adv-x="524" d="M136 223L267 88Q267 66 253 48T208 30Q191 30 177 40T148 64L44 174Q39 183 36 195T32 221Q32 246 38 260T54 283L200 429Q229 422 243 407T258 372Q258 355 251 342T222 307L136 223ZM358 223L488 88Q488 66 474
48T429 30Q412 30 398 40T369 64L265 174Q260 183 257 195T253 221Q253 246 259 260T274 283L420 429Q450 422 464 407T479 372Q479 355 472 342T442 307L358 223Z" />
<glyph unicode="&#xac;" horiz-adv-x="535" d="M87 417H437Q463 417 478 402T494 360V182Q486 179 471 177T439 174Q407 174 392 186T376 233V318H52Q48 327 44 339T40 366Q40 393 53 405T87 417Z" />
<glyph unicode="&#xad;" horiz-adv-x="371" d="M281 206H55Q50 215 46 228T42 256Q42 284 55 296T90 309H316Q320 301 324 288T329 259Q329 232 316 219T281 206Z" />
<glyph unicode="&#xae;" horiz-adv-x="619" d="M47 374Q47 446 80 503T172 595T309 630Q386 630 445 596T538 504T572 374Q572 304 539 246T446 154T309 119Q231 119 172 153T80 246T47 374ZM120 374Q120 319 143 276T209 208T309 183Q366 183 408 208T474 276T497
374Q497 430 474 473T409 542T309 567Q252 567 210 542T144 474T120 374ZM302 343H285V265Q280 264 272 263T252 262Q238 262 230 267T221 290V476Q221 489 240 495Q254 499 269 500T302 502Q353 502 380 481T408 421Q408 396 395 379T361 354L415 285Q412 274
402 268T380 261Q366 261 357 267T340 286L302 343ZM285 390H308Q343 390 343 422Q343 437 333 444T304 452Q299 452 294 452T285 451V390Z" />
<glyph unicode="&#xaf;" horiz-adv-x="347" d="M282 567H35Q31 575 26 587T21 614Q21 642 33 653T65 665H312Q318 657 322 644T326 617Q326 590 314 579T282 567Z" />
<glyph unicode="&#xb0;" horiz-adv-x="361" d="M333 482Q333 438 313 407T259 358T181 341Q114 341 71 379T27 482Q27 525 47 556T103 605T181 622Q223 622 257 605T312 557T333 482ZM181 543Q158 543 140 528T122 482Q122 450 139 435T181 419Q204 419 221 434T239
482Q239 513 221 528T181 543Z" />
<glyph unicode="&#xb1;" horiz-adv-x="521" d="M427 316H57Q52 325 49 337T45 364Q45 391 58 404T94 417H464Q468 409 472 396T476 367Q476 340 463 328T427 316ZM427 0H57Q52 9 49 21T45 48Q45 76 58 88T94 101H464Q468 93 472 80T476 51Q476 24 463 12T427 0ZM320
509V171Q311 169 297 167T267 164Q236 164 221 175T205 220V557Q214 560 228 562T258 565Q288 565 304 554T320 509Z" />
<glyph unicode="&#xb2;" horiz-adv-x="278" d="M124 699Q181 699 213 672T245 597Q245 566 227 538T172 480L118 437H243Q246 431 248 423T251 405Q251 389 244 381T221 372H41Q33 379 28 389T22 412Q22 428 26 438T37 455L117 525Q144 549 155 564T166 595Q166
614 153 624T118 634Q97 634 81 628T52 612Q45 618 39 627T33 649Q33 672 59 685T124 699Z" />
<glyph unicode="&#xb3;" horiz-adv-x="279" d="M77 567H128Q146 567 156 575T167 598Q167 615 153 624T113 634Q93 634 76 628T45 615Q36 621 31 630T25 651Q25 674 53 687T125 700Q183 700 214 674T246 606Q246 584 234 566T201 539Q223 530 237 510T252 461Q252
414 216 389T124 364Q75 364 45 379T15 418Q15 430 22 440T39 455Q53 446 71 438T117 430Q143 430 158 440T173 468Q173 485 162 494T129 504H77Q73 510 71 518T68 535Q68 556 77 567Z" />
<glyph unicode="&#xb4;" horiz-adv-x="298" d="M83 612L182 721Q219 720 239 703T259 665Q259 647 251 635T224 606L131 522Q99 522 82 538T64 573Q64 583 68 592T83 612Z" />
<glyph unicode="&#xb5;" horiz-adv-x="568" d="M64 273H180L176 64Q182 21 186 -25T191 -121V-172Q182 -176 167 -179T134 -183Q98 -183 81 -170T64 -124V273ZM136 156V248L191 259V183Q191 132 218 109T293 86Q324 86 345 92T378 105V259H505V93Q505 70 497 55T467
27Q443 11 404 -2T310 -15Q250 -15 212 5T155 64T136 156ZM505 212H378V472Q386 475 401 478T435 481Q471 481 488 468T505 421V212ZM191 212H64V472Q72 475 88 478T121 481Q158 481 174 468T191 421V212Z" />
<glyph unicode="&#xb6;" horiz-adv-x="498" d="M234 613H366Q398 613 416 602T435 553V-69Q428 -71 412 -74T379 -77Q346 -77 328 -65T309 -17V506H241V251Q241 238 227 230T182 221Q142 221 104 241T41 304T16 411Q16 480 46 524T126 590T234 613Z" />
<glyph unicode="&#xb7;" horiz-adv-x="191" d="M19 262Q19 295 40 317T96 340Q131 340 151 318T172 262Q172 230 152 208T96 185Q61 185 40 207T19 262Z" />
<glyph unicode="&#xb8;" horiz-adv-x="195" d="M47 4L119 28Q152 8 165 -21T179 -84Q179 -134 148 -165T64 -196Q31 -196 11 -181T-9 -137Q-9 -122 -4 -110H8Q42 -110 57 -95T72 -56Q72 -43 66 -27T47 4Z" />
<glyph unicode="&#xb9;" horiz-adv-x="217" d="M91 405V608L40 587Q30 592 21 603T11 630Q11 644 18 653T39 667L112 697H127Q147 697 158 685T169 653V374Q163 372 153 370T133 368Q113 368 102 375T91 405Z" />
<glyph unicode="&#xba;" horiz-adv-x="387" d="M350 459Q350 380 307 338T192 296Q122 296 78 338T34 459Q34 536 78 579T192 622Q263 622 306 579T350 459ZM192 551Q160 551 142 527T123 459Q123 415 142 391T192 367Q224 367 242 391T261 459Q261 502 243 526T192 551Z" />
<glyph unicode="&#xbb;" horiz-adv-x="524" d="M387 236L257 371Q257 393 271 411T315 429Q333 429 347 419T375 395L479 285Q485 276 488 264T492 238Q492 213 486 199T470 176L323 30Q295 38 280 53T265 87Q265 105 272 118T302 152L387 236ZM166 236L36 371Q36
393 50 411T94 429Q112 429 126 419T154 395L258 285Q264 276 267 264T271 238Q271 213 265 199T249 176L103 30Q74 38 59 53T44 87Q44 105 52 118T81 152L166 236Z" />
<glyph unicode="&#xbc;" horiz-adv-x="617" d="M87 325V528L36 507Q26 512 17 523T7 550Q7 564 14 573T35 587L108 617H123Q143 617 154 605T165 573V294Q159 292 149 290T129 288Q109 288 98 295T87 325ZM556 282V131H601Q603 126 605 118T608 100Q608 83 600
75T579 67H348Q337 72 330 82T323 108Q323 119 326 128T335 146L460 316Q468 318 479 320T502 322Q522 322 539 313T556 282ZM483 131V182Q483 193 483 210T484 244L410 131H483ZM480 32V100H556V2Q550 0 541 -2T520 -4Q501 -4 491 3T480 32ZM91 86L450 613Q475
611 490 601T506 573Q506 560 501 549T485 522L126 -6Q101 -3 86 7T69 34Q69 47 75 58T91 86Z" />
<glyph unicode="&#xbd;" horiz-adv-x="629" d="M87 325V528L36 507Q26 512 17 523T7 550Q7 564 14 573T35 587L108 617H123Q143 617 154 605T165 573V294Q159 292 149 290T129 288Q109 288 98 295T87 325ZM477 328Q534 328 566 301T598 226Q598 195 580 167T525
109L471 66H596Q599 60 601 52T604 34Q604 18 597 10T574 1H394Q386 8 381 18T375 41Q375 57 379 67T390 84L470 154Q497 178 508 193T519 224Q519 243 506 253T471 263Q450 263 434 257T405 241Q398 247 392 256T386 278Q386 301 412 314T477 328ZM91 86L450 613Q475
611 490 601T506 573Q506 560 501 549T485 522L126 -6Q101 -3 86 7T69 34Q69 47 75 58T91 86Z" />
<glyph unicode="&#xbe;" horiz-adv-x="667" d="M77 489H128Q146 489 156 497T167 520Q167 537 153 546T113 556Q93 556 76 550T45 537Q36 543 31 552T25 573Q25 596 53 609T125 622Q183 622 214 596T246 528Q246 506 234 488T201 461Q223 452 237 432T252 383Q252
336 216 311T124 286Q75 286 45 301T15 340Q15 352 22 362T39 377Q53 368 71 360T117 352Q143 352 158 362T173 390Q173 407 162 416T129 426H77Q73 432 71 440T68 457Q68 478 77 489ZM606 282V131H651Q653 126 655 118T658 100Q658 83 650 75T629 67H398Q387 72
380 82T373 108Q373 119 376 128T385 146L510 316Q518 318 529 320T552 322Q572 322 589 313T606 282ZM533 131V182Q533 193 533 210T534 244L460 131H533ZM530 32V100H606V2Q600 0 591 -2T570 -4Q551 -4 541 3T530 32ZM144 86L503 613Q528 611 543 601T559 573Q559
560 554 549T538 522L179 -6Q154 -3 139 7T122 34Q122 47 128 58T144 86Z" />
<glyph unicode="&#xbf;" horiz-adv-x="479" d="M249 237L348 259Q361 249 371 232T382 192Q382 169 370 157T331 138L257 119Q212 107 189 85T166 25Q166 -8 192 -33T276 -58Q316 -58 354 -47T416 -18Q430 -29 439 -44T449 -79Q449 -120 397 -143T262 -167Q190
-167 139 -143T60 -75T32 24Q32 110 86 161T249 237ZM371 402Q371 370 350 348T294 326Q258 326 237 348T216 402Q216 435 237 456T294 478Q329 478 350 457T371 402Z" />
<glyph unicode="&#xc0;" horiz-adv-x="610" d="M309 500H304Q293 466 277 421T245 328T213 233L200 167Q194 148 187 125T173 79T160 36T149 0Q139 -4 127 -7T98 -10Q64 -10 45 3T26 42Q26 54 29 65T38 92Q48 125 64 175T101 283T143 400T183 509T215 594Q228
601 254 608T305 615Q341 615 370 605T407 570Q428 516 452 445T500 297T547 148T587 17Q578 6 560 -1T518 -9Q483 -9 469 3T446 44L407 172L392 239Q378 288 362 336T333 427T309 500ZM142 143L190 246H439L457 143H142ZM252 677L162 753Q161 757 161 762T160
771Q160 798 175 813T214 829Q244 829 270 801L355 708Q353 683 338 670T303 656Q287 656 276 662T252 677Z" />
<glyph unicode="&#xc1;" horiz-adv-x="610" d="M309 500H304Q293 466 277 421T245 328T213 233L200 167Q194 148 187 125T173 79T160 36T149 0Q139 -4 127 -7T98 -10Q64 -10 45 3T26 42Q26 54 29 65T38 92Q48 125 64 175T101 283T143 400T183 509T215 594Q228
601 254 608T305 615Q341 615 370 605T407 570Q428 516 452 445T500 297T547 148T587 17Q578 6 560 -1T518 -9Q483 -9 469 3T446 44L407 172L392 239Q378 288 362 336T333 427T309 500ZM142 143L190 246H439L457 143H142ZM277 741L381 834Q414 833 431 818T449
779Q449 763 442 750T413 722L320 656Q290 657 275 670T259 701Q259 712 262 721T277 741Z" />
<glyph unicode="&#xc2;" horiz-adv-x="610" d="M312 742Q291 723 268 700T218 654Q194 655 178 668T162 702Q162 719 170 731T199 760L242 799Q281 831 313 831Q334 831 350 823T384 797L466 710Q466 684 452 670T414 656Q398 656 385 666T351 697L312 742ZM309
500H304Q293 466 277 421T245 328T213 233L200 167Q194 148 187 125T173 79T160 36T149 0Q139 -4 127 -7T98 -10Q64 -10 45 3T26 42Q26 54 29 65T38 92Q48 125 64 175T101 283T143 400T183 509T215 594Q228 601 254 608T305 615Q341 615 370 605T407 570Q428 516
452 445T500 297T547 148T587 17Q578 6 560 -1T518 -9Q483 -9 469 3T446 44L407 172L392 239Q378 288 362 336T333 427T309 500ZM142 143L190 246H439L457 143H142Z" />
<glyph unicode="&#xc3;" horiz-adv-x="610" d="M309 500H304Q293 466 277 421T245 328T213 233L200 167Q194 148 187 125T173 79T160 36T149 0Q139 -4 127 -7T98 -10Q64 -10 45 3T26 42Q26 54 29 65T38 92Q48 125 64 175T101 283T143 400T183 509T215 594Q228
601 254 608T305 615Q341 615 370 605T407 570Q428 516 452 445T500 297T547 148T587 17Q578 6 560 -1T518 -9Q483 -9 469 3T446 44L407 172L392 239Q378 288 362 336T333 427T309 500ZM142 143L190 246H439L457 143H142ZM231 815Q259 815 283 808T329 792T366
784Q386 784 396 796T411 820H416Q441 820 460 805T479 760Q479 724 455 705T393 685Q363 685 338 693T293 709T256 717Q236 717 226 706T211 680H207Q182 680 163 696T144 740Q144 765 156 782T189 807T231 815Z" />
<glyph unicode="&#xc4;" horiz-adv-x="610" d="M309 500H304Q293 466 277 421T245 328T213 233L200 167Q194 148 187 125T173 79T160 36T149 0Q139 -4 127 -7T98 -10Q64 -10 45 3T26 42Q26 54 29 65T38 92Q48 125 64 175T101 283T143 400T183 509T215 594Q228
601 254 608T305 615Q341 615 370 605T407 570Q428 516 452 445T500 297T547 148T587 17Q578 6 560 -1T518 -9Q483 -9 469 3T446 44L407 172L392 239Q378 288 362 336T333 427T309 500ZM142 143L190 246H439L457 143H142ZM278 743Q278 716 259 697T209 678Q180
678 162 697T143 743Q143 771 161 790T209 810Q240 810 259 791T278 743ZM473 743Q473 716 454 697T405 678Q376 678 357 697T337 743Q337 771 356 790T405 810Q435 810 454 791T473 743Z" />
<glyph unicode="&#xc5;" horiz-adv-x="610" d="M309 500H304Q293 466 277 421T245 328T213 233L200 167Q194 148 187 125T173 79T160 36T149 0Q139 -4 127 -7T98 -10Q64 -10 45 3T26 42Q26 54 29 65T38 92Q48 125 64 175T101 283T143 400T183 509T215 594Q228
601 254 608T305 615Q341 615 370 605T407 570Q428 516 452 445T500 297T547 148T587 17Q578 6 560 -1T518 -9Q483 -9 469 3T446 44L407 172L392 239Q378 288 362 336T333 427T309 500ZM142 143L190 246H439L457 143H142ZM190 749Q190 792 222 821T310 850Q367
850 399 821T432 749Q432 707 400 679T310 650Q254 650 222 678T190 749ZM271 749Q271 733 282 723T310 713Q327 713 338 723T350 749Q350 766 339 775T310 785Q294 785 283 776T271 749Z" />
<glyph unicode="&#xc6;" horiz-adv-x="860" d="M485 498H392L251 215L231 176L146 0Q136 -3 126 -6T99 -9Q66 -9 50 4T33 41Q33 52 37 64T48 93Q61 120 84 166T137 270T198 387T257 499T308 591Q319 599 340 605T387 612Q405 612 425 608T462 595T485 571V498ZM145
143L194 246H437L455 143H145ZM398 532H525V7Q517 5 501 2T466 -2Q435 -2 417 17T398 68V532ZM466 258V362H768Q773 354 777 341T782 312Q782 285 770 272T736 258H466ZM466 -2V103H802Q807 95 811 82T816 52Q816 25 804 12T770 -2H466ZM438 503V569Q447 586 464
596T504 607H797Q803 599 807 586T811 557Q811 530 799 517T765 503H438Z" />
<glyph unicode="&#xc7;" horiz-adv-x="579" d="M537 529Q537 510 526 495T501 471Q476 489 444 503T364 517Q308 517 267 492T202 420T178 303Q178 198 230 145T370 91Q416 91 449 104T509 133Q523 124 532 109T541 73Q541 57 532 43T502 17Q482 5 446 -5T355
-16Q268 -16 198 19T86 124T44 303Q44 407 85 478T196 586T348 623Q406 623 448 610T514 576T537 529ZM294 4L366 28Q399 8 412 -21T426 -84Q426 -134 395 -165T311 -196Q278 -196 258 -181T238 -137Q238 -122 243 -110H255Q289 -110 304 -95T319 -56Q319 -43 313
-27T294 4Z" />
<glyph unicode="&#xc8;" horiz-adv-x="545" d="M83 406H210V7Q202 5 186 2T152 -2Q120 -2 102 17T83 68V406ZM210 203H83V537Q83 569 101 588T152 607Q170 607 186 604T210 598V203ZM152 258V362H454Q459 354 463 341T467 312Q467 285 455 272T421 258H152ZM152
-2V103H487Q493 95 497 82T501 52Q501 25 489 12T455 -2H152ZM152 503V607H483Q488 599 492 586T497 557Q497 530 485 517T451 503H152ZM258 677L168 753Q167 757 167 762T166 771Q166 798 181 813T220 829Q250 829 276 801L361 708Q359 683 344 670T309 656Q293
656 282 662T258 677Z" />
<glyph unicode="&#xc9;" horiz-adv-x="545" d="M83 406H210V7Q202 5 186 2T152 -2Q120 -2 102 17T83 68V406ZM210 203H83V537Q83 569 101 588T152 607Q170 607 186 604T210 598V203ZM152 258V362H454Q459 354 463 341T467 312Q467 285 455 272T421 258H152ZM152
-2V103H487Q493 95 497 82T501 52Q501 25 489 12T455 -2H152ZM152 503V607H483Q488 599 492 586T497 557Q497 530 485 517T451 503H152ZM268 741L372 834Q405 833 422 818T440 779Q440 763 433 750T404 722L311 656Q281 657 266 670T250 701Q250 712 253 721T268
741Z" />
<glyph unicode="&#xca;" horiz-adv-x="545" d="M83 406H210V7Q202 5 186 2T152 -2Q120 -2 102 17T83 68V406ZM210 203H83V537Q83 569 101 588T152 607Q170 607 186 604T210 598V203ZM152 258V362H454Q459 354 463 341T467 312Q467 285 455 272T421 258H152ZM152
-2V103H487Q493 95 497 82T501 52Q501 25 489 12T455 -2H152ZM152 503V607H483Q488 599 492 586T497 557Q497 530 485 517T451 503H152ZM294 742Q274 723 250 700T201 654Q177 655 161 668T144 702Q144 719 153 731T181 760L225 799Q264 831 296 831Q317 831 333
823T367 797L448 710Q448 684 434 670T396 656Q381 656 367 666T334 697L294 742Z" />
<glyph unicode="&#xcb;" horiz-adv-x="545" d="M83 406H210V7Q202 5 186 2T152 -2Q120 -2 102 17T83 68V406ZM210 203H83V537Q83 569 101 588T152 607Q170 607 186 604T210 598V203ZM152 258V362H454Q459 354 463 341T467 312Q467 285 455 272T421 258H152ZM152
-2V103H487Q493 95 497 82T501 52Q501 25 489 12T455 -2H152ZM152 503V607H483Q488 599 492 586T497 557Q497 530 485 517T451 503H152ZM265 738Q265 711 246 692T196 673Q167 673 149 692T130 738Q130 766 148 785T196 805Q227 805 246 786T265 738ZM460 738Q460
711 441 692T392 673Q363 673 344 692T324 738Q324 766 343 785T392 805Q422 805 441 786T460 738Z" />
<glyph unicode="&#xcc;" horiz-adv-x="284" d="M77 404H207V1Q199 -1 182 -4T147 -7Q109 -7 93 7T77 54V404ZM207 252H77V607Q86 609 103 612T137 615Q174 615 190 602T207 554V252ZM338 677L248 753Q247 757 247 762T246 771Q246 798 261 813T300 829Q330 829
356 801L441 708Q439 683 424 670T389 656Q373 656 362 662T338 677Z" />
<glyph unicode="&#xcd;" horiz-adv-x="284" d="M77 404H207V1Q199 -1 182 -4T147 -7Q109 -7 93 7T77 54V404ZM207 252H77V607Q86 609 103 612T137 615Q174 615 190 602T207 554V252ZM106 741L210 834Q243 833 260 818T278 779Q278 763 271 750T242 722L149 656Q119
657 104 670T88 701Q88 712 91 721T106 741Z" />
<glyph unicode="&#xce;" horiz-adv-x="284" d="M77 404H207V1Q199 -1 182 -4T147 -7Q109 -7 93 7T77 54V404ZM207 252H77V607Q86 609 103 612T137 615Q174 615 190 602T207 554V252ZM398 742Q378 723 354 700T305 654Q281 655 265 668T248 702Q248 719 257 731T285
760L329 799Q368 831 400 831Q421 831 437 823T471 797L552 710Q552 684 538 670T500 656Q485 656 471 666T438 697L398 742Z" />
<glyph unicode="&#xcf;" horiz-adv-x="284" d="M77 404H207V1Q199 -1 182 -4T147 -7Q109 -7 93 7T77 54V404ZM207 252H77V607Q86 609 103 612T137 615Q174 615 190 602T207 554V252ZM366 738Q366 711 347 692T297 673Q268 673 250 692T231 738Q231 766 249 785T297
805Q328 805 347 786T366 738ZM561 738Q561 711 542 692T493 673Q464 673 445 692T425 738Q425 766 444 785T493 805Q523 805 542 786T561 738Z" />
<glyph unicode="&#xd0;" horiz-adv-x="691" d="M174 357V253H328Q350 253 362 266T374 307Q374 323 370 336T361 357H174ZM211 253V357H61Q40 357 28 344T15 303Q15 287 19 274T29 253H211ZM513 306Q513 200 462 146T319 92Q298 92 277 94T237 100V509Q255 512
274 513T315 515Q372 515 416 493T487 424T513 306ZM647 307Q647 413 605 482T487 586T309 621Q271 621 228 618T146 601Q129 595 119 585T108 557V67Q108 24 157 7Q195 -6 240 -10T319 -14Q418 -14 491 21T606 128T647 307Z" />
<glyph unicode="&#xd1;" horiz-adv-x="670" d="M77 467L193 470Q197 431 199 389T202 306T203 227V1Q195 -1 179 -4T144 -7Q108 -7 93 6T77 52V467ZM593 142L477 139Q469 216 468 289T467 428V608Q475 610 491 612T525 615Q562 615 577 602T593 556V142ZM593 185V252V16Q582
6 562 0T513 -7Q483 -7 458 3T414 47L272 306Q259 330 246 355T221 404T200 451L77 423V585Q88 599 110 607T157 615Q188 615 213 604T256 560L400 301Q413 278 425 253T450 203T471 156L593 185ZM249 815Q277 815 301 808T347 792T384 784Q404 784 414 796T429
820H434Q459 820 478 805T497 760Q497 724 473 705T411 685Q381 685 356 693T311 709T274 717Q254 717 244 706T229 680H225Q200 680 181 696T162 740Q162 765 174 782T207 807T249 815Z" />
<glyph unicode="&#xd2;" horiz-adv-x="696" d="M652 304Q652 200 612 129T504 21T348 -16Q261 -16 192 20T84 128T44 304Q44 408 84 479T193 586T348 623Q433 623 502 587T611 479T652 304ZM518 304Q518 407 472 462T348 517Q271 517 225 463T178 304Q178 200
224 146T348 91Q426 91 472 145T518 304ZM298 677L208 753Q207 757 207 762T206 771Q206 798 221 813T260 829Q290 829 316 801L401 708Q399 683 384 670T349 656Q333 656 322 662T298 677Z" />
<glyph unicode="&#xd3;" horiz-adv-x="696" d="M652 304Q652 200 612 129T504 21T348 -16Q261 -16 192 20T84 128T44 304Q44 408 84 479T193 586T348 623Q433 623 502 587T611 479T652 304ZM518 304Q518 407 472 462T348 517Q271 517 225 463T178 304Q178 200
224 146T348 91Q426 91 472 145T518 304ZM323 741L427 834Q460 833 477 818T495 779Q495 763 488 750T459 722L366 656Q336 657 321 670T305 701Q305 712 308 721T323 741Z" />
<glyph unicode="&#xd4;" horiz-adv-x="696" d="M652 304Q652 200 612 129T504 21T348 -16Q261 -16 192 20T84 128T44 304Q44 408 84 479T193 586T348 623Q433 623 502 587T611 479T652 304ZM518 304Q518 407 472 462T348 517Q271 517 225 463T178 304Q178 200
224 146T348 91Q426 91 472 145T518 304ZM349 742Q329 723 305 700T256 654Q232 655 216 668T199 702Q199 719 208 731T236 760L280 799Q319 831 351 831Q372 831 388 823T422 797L503 710Q503 684 489 670T451 656Q436 656 422 666T389 697L349 742Z" />
<glyph unicode="&#xd5;" horiz-adv-x="696" d="M652 304Q652 200 612 129T504 21T348 -16Q261 -16 192 20T84 128T44 304Q44 408 84 479T193 586T348 623Q433 623 502 587T611 479T652 304ZM518 304Q518 407 472 462T348 517Q271 517 225 463T178 304Q178 200
224 146T348 91Q426 91 472 145T518 304ZM269 815Q297 815 321 808T367 792T404 784Q424 784 434 796T449 820H454Q479 820 498 805T517 760Q517 724 493 705T431 685Q401 685 376 693T331 709T294 717Q274 717 264 706T249 680H245Q220 680 201 696T182 740Q182
765 194 782T227 807T269 815Z" />
<glyph unicode="&#xd6;" horiz-adv-x="696" d="M652 304Q652 200 612 129T504 21T348 -16Q261 -16 192 20T84 128T44 304Q44 408 84 479T193 586T348 623Q433 623 502 587T611 479T652 304ZM518 304Q518 407 472 462T348 517Q271 517 225 463T178 304Q178 200
224 146T348 91Q426 91 472 145T518 304ZM317 738Q317 711 298 692T248 673Q219 673 201 692T182 738Q182 766 200 785T248 805Q279 805 298 786T317 738ZM512 738Q512 711 493 692T444 673Q415 673 396 692T376 738Q376 766 395 785T444 805Q474 805 493 786T512
738Z" />
<glyph unicode="&#xd7;" horiz-adv-x="500" d="M308 308L457 142Q450 118 433 102T390 86Q380 86 368 91T348 107L237 236L198 270L44 430Q50 453 68 472T109 491Q121 491 131 486T148 471L272 336L308 308ZM421 387L306 266L258 229L114 80Q87 86 67 103T46 142Q46
152 52 162T69 183L190 307L235 336L385 493Q407 485 425 468T443 428Q443 418 438 408T421 387Z" />
<glyph unicode="&#xd8;" horiz-adv-x="696" d="M188 72L103 -17Q74 -10 58 4T42 39Q42 54 50 66T76 97L115 134L188 72ZM612 512L573 473L512 547L586 625Q613 619 630 604T647 570Q647 557 638 543T612 512ZM527 429L210 91L167 179L465 501L527 429ZM652 304Q652
200 612 129T504 21T348 -16Q262 -16 193 22T84 132T44 304Q44 408 84 479T193 586T348 623Q432 623 501 586T611 477T652 304ZM521 304Q521 406 474 461T348 517Q271 517 223 463T175 304Q175 201 223 146T348 91Q426 91 473 145T521 304Z" />
<glyph unicode="&#xd9;" horiz-adv-x="657" d="M328 -16Q248 -16 192 13T105 94T74 216V287H204V221Q204 158 239 125T328 91Q382 91 417 124T452 221V287H582V216Q582 147 552 95T465 13T328 -16ZM204 254H74V607Q83 609 100 612T135 615Q171 615 187 602T204
554V254ZM582 253H452V607Q461 609 478 612T512 615Q549 615 565 602T582 554V253ZM266 677L176 753Q175 757 175 762T174 771Q174 798 189 813T228 829Q258 829 284 801L369 708Q367 683 352 670T317 656Q301 656 290 662T266 677Z" />
<glyph unicode="&#xda;" horiz-adv-x="657" d="M328 -16Q248 -16 192 13T105 94T74 216V287H204V221Q204 158 239 125T328 91Q382 91 417 124T452 221V287H582V216Q582 147 552 95T465 13T328 -16ZM204 254H74V607Q83 609 100 612T135 615Q171 615 187 602T204
554V254ZM582 253H452V607Q461 609 478 612T512 615Q549 615 565 602T582 554V253ZM299 741L403 834Q436 833 453 818T471 779Q471 763 464 750T435 722L342 656Q312 657 297 670T281 701Q281 712 284 721T299 741Z" />
<glyph unicode="&#xdb;" horiz-adv-x="657" d="M328 -16Q248 -16 192 13T105 94T74 216V287H204V221Q204 158 239 125T328 91Q382 91 417 124T452 221V287H582V216Q582 147 552 95T465 13T328 -16ZM204 254H74V607Q83 609 100 612T135 615Q171 615 187 602T204
554V254ZM582 253H452V607Q461 609 478 612T512 615Q549 615 565 602T582 554V253ZM333 742Q313 723 289 700T240 654Q216 655 200 668T183 702Q183 719 192 731T220 760L264 799Q303 831 335 831Q356 831 372 823T406 797L487 710Q487 684 473 670T435 656Q420
656 406 666T373 697L333 742Z" />
<glyph unicode="&#xdc;" horiz-adv-x="657" d="M328 -16Q248 -16 192 13T105 94T74 216V287H204V221Q204 158 239 125T328 91Q382 91 417 124T452 221V287H582V216Q582 147 552 95T465 13T328 -16ZM204 254H74V607Q83 609 100 612T135 615Q171 615 187 602T204
554V254ZM582 253H452V607Q461 609 478 612T512 615Q549 615 565 602T582 554V253ZM297 738Q297 711 278 692T228 673Q199 673 181 692T162 738Q162 766 180 785T228 805Q259 805 278 786T297 738ZM492 738Q492 711 473 692T424 673Q395 673 376 692T356 738Q356
766 375 785T424 805Q454 805 473 786T492 738Z" />
<glyph unicode="&#xdd;" horiz-adv-x="562" d="M347 202H231Q205 242 174 289T113 387T57 484T13 571Q21 586 38 598T81 611Q111 611 128 598T163 553Q169 542 181 519T209 467T240 410T268 359T286 327H291Q318 376 339 419T380 506T424 598Q436 605 452 608T481
611Q509 611 526 598T543 557Q543 546 532 520T498 450T437 346T347 202ZM224 252H352V1Q344 -1 328 -4T293 -7Q256 -7 240 7T224 53V252ZM244 741L348 834Q381 833 398 818T416 779Q416 763 409 750T380 722L287 656Q257 657 242 670T226 701Q226 712 229 721T244
741Z" />
<glyph unicode="&#xde;" horiz-adv-x="576" d="M203 206V406H283Q341 406 373 382T406 306Q406 255 374 231T283 206H203ZM74 511V102H302Q420 102 479 158T538 306Q538 400 479 455T302 511H74ZM204 165H74V54Q74 21 90 7T144 -7Q162 -7 179 -4T204 1V165ZM74
431H204V555Q204 589 187 602T134 615Q117 615 100 613T74 608V431Z" />
<glyph unicode="&#xdf;" horiz-adv-x="601" d="M193 284H66V464Q66 534 96 581T176 651T289 675Q354 675 404 650T484 577T513 460Q513 419 478 403L439 386Q420 376 411 366T402 340Q402 325 411 314T443 291Q484 269 511 247T552 198T566 133Q566 59 516 21T389
-17Q330 -17 296 1T261 52Q261 70 269 84T290 106Q307 95 326 88T372 80Q401 80 418 94T436 133Q436 155 423 170T375 204Q325 231 299 262T272 342Q272 382 295 411T362 457L387 467Q387 511 360 540T289 570Q249 570 221 545T193 464V284ZM66 334H193V0Q186 -2
171 -5T137 -8Q101 -8 84 5T66 51V334Z" />
<glyph unicode="&#xe0;" horiz-adv-x="522" d="M250 -15Q151 -15 93 24T35 139Q35 206 77 242T201 286L338 300V317Q338 356 310 373T233 391Q194 391 157 381T91 358Q80 366 73 380T65 409Q65 447 105 464Q133 476 170 482T246 489Q344 489 402 447T461 316V85Q461
61 450 47T419 22Q391 6 348 -4T250 -15ZM250 81Q279 81 303 87T338 100V211L241 202Q202 199 181 185T159 142Q159 114 181 98T250 81ZM212 545L116 640Q115 644 115 649T114 658Q114 685 130 700T170 716Q186 716 199 710T225 689L315 577Q312 551 297 538T262
524Q246 524 235 529T212 545Z" />
<glyph unicode="&#xe1;" horiz-adv-x="522" d="M250 -15Q151 -15 93 24T35 139Q35 206 77 242T201 286L338 300V317Q338 356 310 373T233 391Q194 391 157 381T91 358Q80 366 73 380T65 409Q65 447 105 464Q133 476 170 482T246 489Q344 489 402 447T461 316V85Q461
61 450 47T419 22Q391 6 348 -4T250 -15ZM250 81Q279 81 303 87T338 100V211L241 202Q202 199 181 185T159 142Q159 114 181 98T250 81ZM219 612L318 721Q355 720 375 703T395 665Q395 647 387 635T360 606L267 522Q235 522 218 538T200 573Q200 583 204 592T219
612Z" />
<glyph unicode="&#xe2;" horiz-adv-x="522" d="M250 -15Q151 -15 93 24T35 139Q35 206 77 242T201 286L338 300V317Q338 356 310 373T233 391Q194 391 157 381T91 358Q80 366 73 380T65 409Q65 447 105 464Q133 476 170 482T246 489Q344 489 402 447T461 316V85Q461
61 450 47T419 22Q391 6 348 -4T250 -15ZM250 81Q279 81 303 87T338 100V211L241 202Q202 199 181 185T159 142Q159 114 181 98T250 81ZM309 560L257 622Q233 594 214 573T173 527Q144 528 127 542T109 576Q109 592 117 603T142 632L189 681Q205 696 221 705T259
714Q280 714 297 706T333 674L410 580Q410 560 398 545T361 529Q345 529 334 537T309 560Z" />
<glyph unicode="&#xe3;" horiz-adv-x="522" d="M250 -15Q151 -15 93 24T35 139Q35 206 77 242T201 286L338 300V317Q338 356 310 373T233 391Q194 391 157 381T91 358Q80 366 73 380T65 409Q65 447 105 464Q133 476 170 482T246 489Q344 489 402 447T461 316V85Q461
61 450 47T419 22Q391 6 348 -4T250 -15ZM250 81Q279 81 303 87T338 100V211L241 202Q202 199 181 185T159 142Q159 114 181 98T250 81ZM176 684Q204 684 228 677T274 661T311 653Q331 653 341 665T356 689H361Q386 689 405 674T424 629Q424 593 400 574T338 554Q308
554 283 562T238 578T201 586Q181 586 171 575T156 549H152Q127 549 108 565T89 609Q89 634 101 651T134 676T176 684Z" />
<glyph unicode="&#xe4;" horiz-adv-x="522" d="M250 -15Q151 -15 93 24T35 139Q35 206 77 242T201 286L338 300V317Q338 356 310 373T233 391Q194 391 157 381T91 358Q80 366 73 380T65 409Q65 447 105 464Q133 476 170 482T246 489Q344 489 402 447T461 316V85Q461
61 450 47T419 22Q391 6 348 -4T250 -15ZM250 81Q279 81 303 87T338 100V211L241 202Q202 199 181 185T159 142Q159 114 181 98T250 81ZM233 872Q233 845 214 826T164 807Q135 807 117 826T98 872Q98 900 116 919T164 939Q195 939 214 920T233 872ZM428 872Q428
845 409 826T360 807Q331 807 312 826T292 872Q292 900 311 919T360 939Q390 939 409 920T428 872Z" />
<glyph unicode="&#xe5;" horiz-adv-x="522" d="M250 -15Q151 -15 93 24T35 139Q35 206 77 242T201 286L338 300V317Q338 356 310 373T233 391Q194 391 157 381T91 358Q80 366 73 380T65 409Q65 447 105 464Q133 476 170 482T246 489Q344 489 402 447T461 316V85Q461
61 450 47T419 22Q391 6 348 -4T250 -15ZM250 81Q279 81 303 87T338 100V211L241 202Q202 199 181 185T159 142Q159 114 181 98T250 81ZM141 627Q141 670 173 700T260 730Q318 730 349 700T381 627Q381 584 350 555T260 525Q205 525 173 554T141 627ZM222 627Q222
608 233 598T261 587Q278 587 289 597T301 627Q301 646 290 656T261 667Q244 667 233 657T222 627Z" />
<glyph unicode="&#xe6;" horiz-adv-x="821" d="M590 -15Q480 -15 417 47T350 215Q350 221 347 228T344 242Q344 325 374 379T454 461T564 489Q630 489 679 462T757 388T786 280Q786 252 772 238T730 220L406 173L401 262L666 301Q663 338 638 365T564 393Q513
393 480 358T446 258L449 204Q457 142 497 113T598 83Q640 83 676 95T734 122Q748 114 757 100T766 70Q766 44 743 25T680 -5T590 -15ZM250 81Q279 81 303 87T338 100V211L241 202Q202 199 181 185T159 142Q159 114 181 98T250 81ZM249 -15Q149 -15 92 24T35 139Q35
206 77 242T201 286L338 300V317Q338 356 310 373T233 391Q194 391 157 381T91 358Q80 366 73 380T65 409Q65 447 105 464Q133 476 170 482T246 489Q338 489 387 446T436 316V82Q436 58 426 43T399 19Q372 4 338 -5T249 -15Z" />
<glyph unicode="&#xe7;" horiz-adv-x="484" d="M308 387Q250 387 209 348T168 236Q168 163 207 125T308 87Q343 87 369 96T414 118Q429 107 437 95T445 64Q445 30 405 8T297 -14Q221 -14 163 14T72 97T40 236Q40 320 74 376T167 460T293 489Q360 489 400 465T440
407Q440 391 432 379T412 357Q393 368 368 377T308 387ZM235 4L307 28Q340 8 353 -21T367 -84Q367 -134 336 -165T252 -196Q219 -196 199 -181T179 -137Q179 -122 184 -110H196Q230 -110 245 -95T260 -56Q260 -43 254 -27T235 4Z" />
<glyph unicode="&#xe8;" horiz-adv-x="535" d="M120 173L115 262L380 301Q377 338 351 365T277 393Q226 393 193 358T159 258L162 204Q170 142 210 113T312 83Q354 83 390 95T448 122Q461 114 470 100T479 70Q479 44 456 25T394 -5T304 -15Q226 -15 167 14T74
100T40 242Q40 304 59 350T111 427T186 473T277 489Q343 489 393 462T471 388T499 280Q499 252 485 238T444 220L120 173ZM224 545L128 640Q127 644 127 649T126 658Q126 685 142 700T182 716Q198 716 211 710T237 689L327 577Q324 551 309 538T274 524Q258 524
247 529T224 545Z" />
<glyph unicode="&#xe9;" horiz-adv-x="535" d="M120 173L115 262L380 301Q377 338 351 365T277 393Q226 393 193 358T159 258L162 204Q170 142 210 113T312 83Q354 83 390 95T448 122Q461 114 470 100T479 70Q479 44 456 25T394 -5T304 -15Q226 -15 167 14T74
100T40 242Q40 304 59 350T111 427T186 473T277 489Q343 489 393 462T471 388T499 280Q499 252 485 238T444 220L120 173ZM244 612L343 721Q380 720 400 703T420 665Q420 647 412 635T385 606L292 522Q260 522 243 538T225 573Q225 583 229 592T244 612Z" />
<glyph unicode="&#xea;" horiz-adv-x="535" d="M120 173L115 262L380 301Q377 338 351 365T277 393Q226 393 193 358T159 258L162 204Q170 142 210 113T312 83Q354 83 390 95T448 122Q461 114 470 100T479 70Q479 44 456 25T394 -5T304 -15Q226 -15 167 14T74
100T40 242Q40 304 59 350T111 427T186 473T277 489Q343 489 393 462T471 388T499 280Q499 252 485 238T444 220L120 173ZM329 560L277 622Q253 594 234 573T193 527Q164 528 147 542T129 576Q129 592 137 603T162 632L209 681Q225 696 241 705T279 714Q300 714
317 706T353 674L430 580Q430 560 418 545T381 529Q365 529 354 537T329 560Z" />
<glyph unicode="&#xeb;" horiz-adv-x="535" d="M120 173L115 262L380 301Q377 338 351 365T277 393Q226 393 193 358T159 258L162 204Q170 142 210 113T312 83Q354 83 390 95T448 122Q461 114 470 100T479 70Q479 44 456 25T394 -5T304 -15Q226 -15 167 14T74
100T40 242Q40 304 59 350T111 427T186 473T277 489Q343 489 393 462T471 388T499 280Q499 252 485 238T444 220L120 173ZM241 872Q241 845 222 826T172 807Q143 807 125 826T106 872Q106 900 124 919T172 939Q203 939 222 920T241 872ZM436 872Q436 845 417 826T368
807Q339 807 320 826T300 872Q300 900 319 919T368 939Q398 939 417 920T436 872Z" />
<glyph unicode="&#xec;" horiz-adv-x="262" d="M68 298H194V0Q187 -2 172 -5T138 -8Q102 -8 85 5T68 51V298ZM194 250H68V469Q76 472 91 474T124 477Q161 477 177 464T194 418V250ZM80 545L-16 640Q-17 644 -17 649T-18 658Q-18 685 -2 700T38 716Q54 716 67 710T93
689L183 577Q180 551 165 538T130 524Q114 524 103 529T80 545Z" />
<glyph unicode="&#xed;" horiz-adv-x="262" d="M68 298H194V0Q187 -2 172 -5T138 -8Q102 -8 85 5T68 51V298ZM194 250H68V469Q76 472 91 474T124 477Q161 477 177 464T194 418V250ZM98 612L197 721Q235 720 255 703T275 665Q275 647 267 635T240 606L147 522Q115
522 97 538T79 573Q79 583 84 592T98 612Z" />
<glyph unicode="&#xee;" horiz-adv-x="262" d="M68 298H194V0Q187 -2 172 -5T138 -8Q102 -8 85 5T68 51V298ZM194 250H68V469Q76 472 91 474T124 477Q161 477 177 464T194 418V250ZM184 560L132 622Q107 594 88 573T47 527Q19 528 1 542T-17 576Q-17 592 -8 603T17
632L64 681Q80 696 96 705T133 714Q155 714 171 706T207 674L285 580Q285 560 273 545T235 529Q219 529 208 537T184 560Z" />
<glyph unicode="&#xef;" horiz-adv-x="262" d="M68 298H194V0Q187 -2 172 -5T138 -8Q102 -8 85 5T68 51V298ZM194 250H68V469Q76 472 91 474T124 477Q161 477 177 464T194 418V250ZM101 616Q101 589 82 570T32 550Q3 550 -15 569T-34 616Q-34 644 -16 663T32 682Q63
682 82 663T101 616ZM296 616Q296 589 277 570T228 550Q199 550 180 569T160 616Q160 644 179 663T228 682Q258 682 277 663T296 616Z" />
<glyph unicode="&#xf0;" horiz-adv-x="562" d="M372 548L330 532L157 469Q145 477 136 492T127 523Q127 550 156 562L234 592L302 619L435 672Q448 663 457 649T467 617Q467 599 459 590T437 575L372 548ZM414 381L398 284Q380 315 351 332T286 349Q229 349 199
314T169 220Q169 159 199 123T283 87Q338 87 364 124T391 224Q391 256 388 281T379 332Q376 347 377 357T378 375T373 395Q354 437 332 471T273 534Q265 542 255 550T236 565Q210 583 182 594T122 616Q123 650 140 668T185 686Q222 686 264 668T347 617Q354 610
359 606T372 595Q413 555 447 501T501 384T521 250Q521 169 495 110T415 18T282 -15Q171 -15 106 48T40 220Q40 297 72 347T155 422T262 447Q314 447 352 428T414 381Z" />
<glyph unicode="&#xf1;" horiz-adv-x="572" d="M509 309V212H382V305Q382 348 357 368T291 388Q262 388 238 381T195 362V212H68V373Q68 397 78 412T109 441Q139 460 186 474T292 489Q395 489 452 443T509 309ZM68 261H195V1Q187 -1 172 -4T138 -7Q102 -7 85 6T68
52V261ZM382 261H509V1Q500 -1 485 -4T451 -7Q415 -7 399 6T382 52V261ZM204 684Q232 684 256 677T302 661T339 653Q359 653 369 665T384 689H389Q414 689 433 674T452 629Q452 593 428 574T366 554Q336 554 311 562T266 578T229 586Q209 586 199 575T184 549H180Q155
549 136 565T117 609Q117 634 129 651T162 676T204 684Z" />
<glyph unicode="&#xf2;" horiz-adv-x="570" d="M531 237Q531 160 501 104T415 16T285 -15Q211 -15 156 15T70 103T40 237Q40 315 70 371T156 458T286 489Q359 489 414 458T500 370T531 237ZM285 388Q232 388 201 348T169 237Q169 165 200 126T285 86Q340 86 370
126T401 237Q401 308 370 348T285 388ZM251 545L155 640Q154 644 154 649T153 658Q153 685 169 700T209 716Q225 716 238 710T264 689L354 577Q351 551 336 538T301 524Q285 524 274 529T251 545Z" />
<glyph unicode="&#xf3;" horiz-adv-x="570" d="M531 237Q531 160 501 104T415 16T285 -15Q211 -15 156 15T70 103T40 237Q40 315 70 371T156 458T286 489Q359 489 414 458T500 370T531 237ZM285 388Q232 388 201 348T169 237Q169 165 200 126T285 86Q340 86 370
126T401 237Q401 308 370 348T285 388ZM244 612L343 721Q380 720 400 703T420 665Q420 647 412 635T385 606L292 522Q260 522 243 538T225 573Q225 583 229 592T244 612Z" />
<glyph unicode="&#xf4;" horiz-adv-x="570" d="M531 237Q531 160 501 104T415 16T285 -15Q211 -15 156 15T70 103T40 237Q40 315 70 371T156 458T286 489Q359 489 414 458T500 370T531 237ZM285 388Q232 388 201 348T169 237Q169 165 200 126T285 86Q340 86 370
126T401 237Q401 308 370 348T285 388ZM335 560L283 622Q259 594 240 573T199 527Q170 528 153 542T135 576Q135 592 143 603T168 632L215 681Q231 696 247 705T285 714Q306 714 323 706T359 674L436 580Q436 560 424 545T387 529Q371 529 360 537T335 560Z" />
<glyph unicode="&#xf5;" horiz-adv-x="570" d="M531 237Q531 160 501 104T415 16T285 -15Q211 -15 156 15T70 103T40 237Q40 315 70 371T156 458T286 489Q359 489 414 458T500 370T531 237ZM285 388Q232 388 201 348T169 237Q169 165 200 126T285 86Q340 86 370
126T401 237Q401 308 370 348T285 388ZM207 684Q235 684 259 677T305 661T342 653Q362 653 372 665T387 689H392Q417 689 436 674T455 629Q455 593 431 574T369 554Q339 554 314 562T269 578T232 586Q212 586 202 575T187 549H183Q158 549 139 565T120 609Q120
634 132 651T165 676T207 684Z" />
<glyph unicode="&#xf6;" horiz-adv-x="570" d="M531 237Q531 160 501 104T415 16T285 -15Q211 -15 156 15T70 103T40 237Q40 315 70 371T156 458T286 489Q359 489 414 458T500 370T531 237ZM285 388Q232 388 201 348T169 237Q169 165 200 126T285 86Q340 86 370
126T401 237Q401 308 370 348T285 388ZM255 872Q255 845 236 826T186 807Q157 807 139 826T120 872Q120 900 138 919T186 939Q217 939 236 920T255 872ZM450 872Q450 845 431 826T382 807Q353 807 334 826T314 872Q314 900 333 919T382 939Q412 939 431 920T450
872Z" />
<glyph unicode="&#xf7;" horiz-adv-x="524" d="M435 243H52Q47 252 44 264T40 292Q40 319 53 331T89 344H471Q476 336 479 323T483 295Q483 268 470 256T435 243ZM198 127Q198 156 216 175T264 194Q294 194 312 175T330 127Q330 99 312 80T264 61Q234 61 216 80T198
127ZM198 458Q198 487 216 506T264 526Q294 526 312 507T330 458Q330 430 312 411T264 392Q234 392 216 411T198 458Z" />
<glyph unicode="&#xf8;" horiz-adv-x="570" d="M433 391L381 448L439 535Q452 535 465 530T487 516T497 493Q497 485 490 475L433 391ZM200 40L131 -61Q117 -61 104 -55T82 -40T73 -19Q73 -9 80 1L130 74L200 40ZM218 68L174 135L343 392L410 362L218 68ZM531
237Q531 160 501 104T415 16T285 -15Q211 -15 156 15T70 103T40 237Q40 314 70 370T156 458T285 489Q359 489 414 458T500 370T531 237ZM285 389Q232 389 197 350T162 237Q162 165 196 125T285 85Q340 85 374 124T408 237Q408 310 374 349T285 389Z" />
<glyph unicode="&#xf9;" horiz-adv-x="567" d="M63 181V259H190V183Q190 132 217 109T292 86Q323 86 344 92T377 105V259H504V93Q504 70 496 55T466 27Q438 9 393 -3T291 -15Q222 -15 171 6T91 70T63 181ZM504 212H377V472Q385 475 400 478T434 481Q471 481 487
468T504 421V212ZM190 212H63V472Q71 475 87 478T121 481Q157 481 173 468T190 421V212ZM226 545L130 640Q129 644 129 649T128 658Q128 685 144 700T184 716Q200 716 213 710T239 689L329 577Q326 551 311 538T276 524Q260 524 249 529T226 545Z" />
<glyph unicode="&#xfa;" horiz-adv-x="567" d="M63 181V259H190V183Q190 132 217 109T292 86Q323 86 344 92T377 105V259H504V93Q504 70 496 55T466 27Q438 9 393 -3T291 -15Q222 -15 171 6T91 70T63 181ZM504 212H377V472Q385 475 400 478T434 481Q471 481 487
468T504 421V212ZM190 212H63V472Q71 475 87 478T121 481Q157 481 173 468T190 421V212ZM257 612L356 721Q393 720 413 703T433 665Q433 647 425 635T398 606L305 522Q273 522 256 538T238 573Q238 583 242 592T257 612Z" />
<glyph unicode="&#xfb;" horiz-adv-x="567" d="M63 181V259H190V183Q190 132 217 109T292 86Q323 86 344 92T377 105V259H504V93Q504 70 496 55T466 27Q438 9 393 -3T291 -15Q222 -15 171 6T91 70T63 181ZM504 212H377V472Q385 475 400 478T434 481Q471 481 487
468T504 421V212ZM190 212H63V472Q71 475 87 478T121 481Q157 481 173 468T190 421V212ZM335 560L283 622Q259 594 240 573T199 527Q170 528 153 542T135 576Q135 592 143 603T168 632L215 681Q231 696 247 705T285 714Q306 714 323 706T359 674L436 580Q436 560
424 545T387 529Q371 529 360 537T335 560Z" />
<glyph unicode="&#xfc;" horiz-adv-x="567" d="M63 181V259H190V183Q190 132 217 109T292 86Q323 86 344 92T377 105V259H504V93Q504 70 496 55T466 27Q438 9 393 -3T291 -15Q222 -15 171 6T91 70T63 181ZM504 212H377V472Q385 475 400 478T434 481Q471 481 487
468T504 421V212ZM190 212H63V472Q71 475 87 478T121 481Q157 481 173 468T190 421V212ZM251 872Q251 845 232 826T182 807Q153 807 135 826T116 872Q116 900 134 919T182 939Q213 939 232 920T251 872ZM446 872Q446 845 427 826T378 807Q349 807 330 826T310 872Q310
900 329 919T378 939Q408 939 427 920T446 872Z" />
<glyph unicode="&#xfd;" horiz-adv-x="521" d="M148 114Q132 147 112 196T69 310T25 455Q35 467 53 475T92 484Q118 484 135 472T162 429Q186 353 212 278T268 124H272Q290 168 309 226T346 348T374 470Q386 476 399 480T428 484Q455 484 473 472T492 433Q492
409 484 369T461 281T427 181T386 82T342 -6Q291 -97 248 -143T164 -189Q132 -189 112 -171T88 -123Q109 -105 133 -79T180 -23T219 34Q202 39 185 55T148 114ZM218 612L317 721Q354 720 374 703T394 665Q394 647 386 635T359 606L266 522Q234 522 217 538T199
573Q199 583 203 592T218 612Z" />
<glyph unicode="&#xfe;" horiz-adv-x="571" d="M290 -14Q251 -14 219 -4T166 19V129Q184 113 210 100T271 87Q331 87 365 124T399 239Q399 293 383 325T339 373T274 388Q247 388 222 380T172 355L159 455Q179 466 213 477T291 489Q357 489 410 463T496 381T529
239Q529 156 498 100T413 15T290 -14ZM135 -181Q99 -181 82 -168T65 -122V87L192 86V-173Q184 -176 169 -178T135 -181ZM65 54V651Q73 653 89 655T122 658Q159 658 175 645T192 599V54H65Z" />
<glyph unicode="&#xff;" horiz-adv-x="521" d="M148 114Q132 147 112 196T69 310T25 455Q35 467 53 475T92 484Q118 484 135 472T162 429Q186 353 212 278T268 124H272Q290 168 309 226T346 348T374 470Q386 476 399 480T428 484Q455 484 473 472T492 433Q492
409 484 369T461 281T427 181T386 82T342 -6Q291 -97 248 -143T164 -189Q132 -189 112 -171T88 -123Q109 -105 133 -79T180 -23T219 34Q202 39 185 55T148 114ZM229 872Q229 845 210 826T160 807Q131 807 113 826T94 872Q94 900 112 919T160 939Q191 939 210 920T229
872ZM424 872Q424 845 405 826T356 807Q327 807 308 826T288 872Q288 900 307 919T356 939Q386 939 405 920T424 872Z" />
<glyph unicode="&#x2013;" horiz-adv-x="538" d="M453 206H49Q44 215 40 228T36 256Q36 284 49 296T85 309H489Q493 301 497 288T501 259Q501 232 488 219T453 206Z" />
<glyph unicode="&#x2014;" horiz-adv-x="772" d="M682 208H55Q50 217 46 230T42 258Q42 285 55 298T90 311H717Q721 302 725 289T730 261Q730 234 717 221T682 208Z" />
<glyph unicode="&#x2018;" horiz-adv-x="178" d="M62 602Q71 617 83 624T113 632Q127 632 139 629T162 619Q159 586 154 547T146 469T140 397Q129 392 113 387T81 382Q56 382 37 394T18 434Q18 458 24 490T41 553T62 602Z" />
<glyph unicode="&#x2019;" horiz-adv-x="176" d="M117 413Q108 398 97 390T66 382Q52 382 40 386T16 396Q20 428 24 467T33 545T38 616Q50 622 66 626T98 631Q123 631 141 620T160 579Q160 556 154 524T137 461T117 413Z" />
<glyph unicode="&#x201a;" horiz-adv-x="181" d="M117 -106Q108 -121 97 -129T66 -137Q52 -137 40 -133T16 -123Q20 -91 24 -52T33 26T38 97Q50 103 66 107T98 112Q123 112 141 101T160 60Q160 37 154 5T137 -58T117 -106Z" />
<glyph unicode="&#x201c;" horiz-adv-x="344" d="M232 602Q241 617 252 624T281 632Q295 632 306 629T327 620Q323 587 319 547T311 468T305 396Q293 391 279 387T248 382Q222 382 206 394T189 434Q189 458 195 490T212 553T232 602ZM61 602Q70 617 80 624T109
632Q123 632 134 629T156 620Q152 587 148 547T139 468T133 396Q122 391 108 387T77 382Q51 382 35 394T18 434Q18 458 24 490T41 553T61 602Z" />
<glyph unicode="&#x201d;" horiz-adv-x="344" d="M111 413Q102 398 92 390T63 382Q49 382 38 385T16 394Q20 427 24 467T33 546T38 617Q50 623 64 627T94 631Q121 631 137 620T154 579Q154 556 148 524T131 461T111 413ZM283 413Q274 398 264 390T234 382Q220
382 209 385T188 394Q192 427 196 467T204 546T210 617Q221 623 235 627T266 631Q292 631 308 620T325 579Q325 556 319 524T303 461T283 413Z" />
<glyph unicode="&#x201e;" horiz-adv-x="346" d="M111 -106Q102 -121 92 -129T63 -137Q49 -137 38 -134T16 -125Q20 -92 24 -52T33 27T38 98Q50 104 64 108T94 112Q121 112 137 101T154 60Q154 37 148 5T131 -58T111 -106ZM283 -106Q274 -121 264 -129T234 -137Q220
-137 209 -134T188 -125Q192 -92 196 -52T204 27T210 98Q221 104 235 108T266 112Q292 112 308 101T325 60Q325 37 319 5T303 -58T283 -106Z" />
<glyph unicode="&#x2022;" horiz-adv-x="289" d="M42 282Q42 325 70 355T144 385Q191 385 219 355T247 282Q247 239 219 210T144 180Q98 180 70 209T42 282Z" />
<glyph unicode="&#x2039;" horiz-adv-x="303" d="M136 223L267 88Q267 66 253 48T208 30Q191 30 177 40T148 64L44 174Q39 183 36 195T32 221Q32 246 38 260T54 283L200 429Q229 422 243 407T258 372Q258 355 251 342T222 307L136 223Z" />
<glyph unicode="&#x203a;" horiz-adv-x="303" d="M166 236L36 371Q36 393 50 411T94 429Q112 429 126 419T154 395L258 285Q264 276 267 264T271 238Q271 213 265 199T249 176L103 30Q74 38 59 53T44 87Q44 105 52 118T81 152L166 236Z" />
</font>
</defs>
</svg>
